DBRep_DrawableShape

CASCADE Topology V3, (c) Open Cascade
Locations 3
1
              1               0               0               0 
              0               1               0               0 
              0               0               1             2.8 
2  1 -1 0
1
              1               0               0               0 
              0 0.990215996212637 0.139543114644236 -0.390720721003862 
              0 -0.139543114644236 0.990215996212637 0.0273952106046158 
Curve2ds 48
1 0 -0 1 0 
1 0 -2.7999999999999998 1 0 
1 2.6000000000000001 0 0 -1 
1 2.6000000000000001 0 0 -1 
8 -3.9000000000000004 -1.3000000000000003
1 3.9000000000000004 -2.5172334106185517 1 0 
8 -3.9000000000000004 -1.3000000000000003
1 3.9000000000000004 10.439458130599617 -1 0 
1 0 -0 0 -1 
1 2.1954498400100149 0 0 -1 
1 0 0 1 0 
1 0 -2.7999999999999998 1 0 
1 0 0 1 0 
1 0 -2.7999999999999998 1 0 
1 0 0 1 0 
1 0 -2.7999999999999998 1 0 
1 0 -0 1 0 
1 0 -2.7999999999999998 1 0 
1 0 0 1 0 
1 0 -2.7999999999999998 1 0 
1 0 0 1 0 
1 0 -2.7999999999999998 1 0 
1 0 0 1 0 
1 0 -2.7999999999999998 1 0 
8 1.3000000000000003 3.9000000000000004
1 -1.3000000000000003 -2.5172334106185517 1 0 
8 1.3000000000000003 3.9000000000000004
1 1.2999999999999998 10.439458130599617 1 0 
1 0 0 0 -1 
1 2.1954498400100149 0 0 -1 
8 -6.1446254613074114 -3.9329087254732511
1 6.0994325210732354 -2.9933534258059602 0.99264512694569351 -0.12106053011187452 
8 -6.1446254613074114 -3.9329087254732511
1 0.64396307722067814 7.0274659559855515 -0.49735121237626734 -0.86754929055809682 
8 -7.3240992642738245 -3.9379119839338639
1 7.2547008506990762 -2.790295212175979 0.99052464868775514 -0.13733506595913242 
8 -7.3240992642738245 -3.9379119839338639
1 4.3977603406870953 8.4826306493326644 0.17719043582839353 -0.98417658448621104 
8 -2.6000000000000001 -0.5
1 2.6000000000000001 -1.7844395566257001 1 0 
8 -2.6000000000000001 -0.5
1 2.6000000000000001 15.690837647683647 -1 0 
8 2.6000000000000001 4.7000000000000002
1 -2.6000000000000001 -1.7844395566257001 1 0 
8 2.6000000000000001 4.7000000000000002
1 2.6000000000000001 15.690837647683647 1 0 
8 -8.2454895305814695 -4.8593022502415106
1 8.1673606205377745 -2.9168344051734421 0.99052464868775514 -0.13733506595913242 
8 -8.2454895305814695 -4.8593022502415106
1 5.8389781164578141 7.5758199240591644 -0.17719043582839353 -0.98417658448621104 
8 -3.5583991569508209 -1.3466824211166601
1 3.5322275828748957 -2.6802634984112768 0.99264512694569351 -0.12106053011187452 
8 -3.5583991569508209 -1.3466824211166601
1 8.4697741348281799 9.2711447515528 0.49735121237626734 -0.86754929055809682 
1 3.3541019662496852 0 0 -1 
1 0 0 0 -1 
1 0 0 0 -1 
1 3.3541019662496852 0 0 -1 
1 0 0 0 -1 
1 2.1000000000000001 0 0 -1 
1 0 -0 0 -1 
1 0 0 0 -1 
1 2.1000000000000001 0 0 -1 
1 0 0 0 -1 
Curves 24
1 2.6000000000000001 0 0 -1 0 0 
1 0 0 0 0 0 1 
1 -1.3 8.8817841970012523e-16 2.5172334106185517 -1 0 0 
1 2.6000000000000001 0 0 0 0 1 
1 -2.6000000000000001 0 0 1 0 0 
1 -1.5 1.8999999999999999 0 -0.50103627054170474 -0.86542628548112621 0 
1 -2.1000000000000001 5.2000000000000002 0 0.1788854381999832 -0.98386991009990754 0 
1 -0 5.2000000000000002 0 -1 0 0 
1 0 5.2000000000000002 0 1 0 0 
1 2.1000000000000001 5.2000000000000002 0 -0.1788854381999832 -0.98386991009990754 0 
1 1.5 1.8999999999999999 0 0.50103627054170474 -0.86542628548112621 0 
1 -3.9000000000000004 8.8817841970012523e-16 2.5172334106185517 1 0 0 
1 -2.6000000000000001 0 0 0 0 1 
1 -4.556036922779322 -3.3786092302551904 2.9933534258059602 -0.49735121237626734 -0.85906118501355244 0.12106053011187452 
1 -0.80223965931290464 -1.937681873779022 2.790295212175979 0.1771904358283935 -0.974547397056164 0.13733506595913242 
1 -2.6000000000000001 5.2000000000000011 1.7844395566257001 -1 0 0 
1 -2.6000000000000001 5.2000000000000011 1.7844395566257001 1 0 0 
1 0.6389781164578141 -2.8356203594820242 2.9168344051734421 -0.1771904358283935 -0.974547397056164 0.13733506595913242 
1 3.2697741348281797 -1.1568825965213967 2.6802634984112768 0.49735121237626734 -0.85906118501355244 0.12106053011187452 
1 1.5 1.8999999999999999 0 0 0 1 
1 -1.5 1.8999999999999999 0 0 0 1 
1 -2.1000000000000001 5.2000000000000002 0 0 0 1 
1 0 5.2000000000000002 0 0 0 1 
1 2.1000000000000001 5.2000000000000002 0 0 0 1 
Polygon3D 0
PolygonOnTriangulations 0
Surfaces 10
1 2.6000000000000001 0 0 0 -1 0 -1 0 0 -0 -0 -1 
1 -2.6000000000000001 0 0 0 1 0 1 0 0 0 0 -1 
1 -5.2000000000000002 -10.4 2.52 0 0 1 1 0 -0 -0 1 0 
1 1.5 1.8999999999999999 0 0.86542628548112621 0.50103627054170474 -0 0.50103627054170474 -0.86542628548112621 0 0 -0 -1 
1 -1.9497452006679933e-16 2.4306174356795731 0 -0 -0 -1 -1 0 0 0 1 -0 
1 -1.5 1.8999999999999999 0 0.86542628548112621 -0.50103627054170474 0 -0.50103627054170474 -0.86542628548112621 0 0 -0 -1 
1 -2.1000000000000001 5.2000000000000002 0 0.98386991009990754 0.1788854381999832 -0 0.1788854381999832 -0.98386991009990754 0 0 -0 -1 
1 -0 5.2000000000000002 0 0 -1 0 -1 0 0 -0 -0 -1 
1 0 5.2000000000000002 0 0 1 0 1 0 0 0 0 -1 
1 2.1000000000000001 5.2000000000000002 0 0.98386991009990754 -0.1788854381999832 0 -0.1788854381999832 -0.98386991009990754 0 0 -0 -1 
Triangulations 0

TShapes 67
Ve
1e-07
2.6 0 0
0 0

0101101
*
Ve
1e-07
0 0 0
0 0

0101101
*
Ed
 1e-07 1 1 0
1  1 0 0 2.6
2  1 1 0 0 2.6
2  2 1 2 0 2.6
0

0101000
+67 0 -66 0 *
Ve
1.50000000915513e-07
0 0 2.51723341061855
0 0

0101101
*
Ed
 1e-07 1 1 0
1  2 0 0 2.51723341061855
4 C2 1 0 2 0
2  3 1 0 0 2.51723341061855
2  4 2 0 0 2.51723341061855
0

0101000
+66 0 -64 0 *
Ve
1.5000000226442e-07
2.6 0 2.51723341061855
0 0

0101101
*
Ed
 1.5e-07 1 1 0
1  3 0 -3.9 -1.3
2  5 1 0 -3.9 -1.3
2  6 3 3 -3.9 -1.3
0

0101000
+62 0 -64 0 *
Ed
 1e-07 1 1 0
1  4 0 0 2.51723341061855
2  7 1 0 0 2.51723341061855
2  8 4 0 0 2.51723341061855
0

0101000
+67 0 -62 0 *
Wi

0101100
-65 0 -63 0 +61 0 +60 0 *
Fa
0  1e-07 1 0

0101000
+59 0 *
Ve
1e-07
-2.6 0 0
0 0

0101101
*
Ed
 1e-07 1 1 0
1  5 0 0 2.6
2  9 2 0 0 2.6
2  10 2 2 0 2.6
0

0101000
+57 0 -66 0 *
Ve
1e-07
-1.5 1.9 0
0 0

0101101
*
Ed
 1e-07 1 1 0
1  6 0 0 2.19544984001001
2  11 6 0 0 2.19544984001001
2  12 6 2 0 2.19544984001001
0

0101000
+55 0 -57 0 *
Ve
1e-07
-2.1 5.2 0
0 0

0101101
*
Ed
 1e-07 1 1 0
1  7 0 0 3.35410196624968
2  13 7 0 0 3.35410196624968
2  14 7 2 0 3.35410196624968
0

0101000
+53 0 -55 0 *
Ve
1e-07
0 5.2 0
0 0

0101101
*
Ed
 1e-07 1 1 0
1  8 0 0 2.1
2  15 8 0 0 2.1
2  16 8 2 0 2.1
0

0101000
+51 0 -53 0 *
Ve
1e-07
2.1 5.2 0
0 0

0101101
*
Ed
 1e-07 1 1 0
1  9 0 0 2.1
2  17 9 0 0 2.1
2  18 9 2 0 2.1
0

0101000
+51 0 -49 0 *
Ve
1e-07
1.5 1.9 0
0 0

0101101
*
Ed
 1e-07 1 1 0
1  10 0 0 3.35410196624968
2  19 10 0 0 3.35410196624968
2  20 10 2 0 3.35410196624968
0

0101000
+49 0 -47 0 *
Ed
 1e-07 1 1 0
1  11 0 0 2.19544984001001
2  21 4 0 0 2.19544984001001
2  22 4 2 0 2.19544984001001
0

0101000
+47 0 -67 0 *
Wi

0101100
+65 0 -56 0 -54 0 -52 0 -50 0 +48 0 +46 0 +45 0 *
Fa
0  1e-07 5 0

0111000
+44 0 *
Ve
1.50000000993014e-07
-2.6 0 2.51723341061855
0 0

0101101
*
Ed
 1.5e-07 1 1 0
1  12 0 1.3 3.9
2  23 2 0 1.3 3.9
2  24 3 3 1.3 3.9
0

0101000
+42 0 -64 0 *
Ed
 1e-07 1 1 0
1  13 0 0 2.51723341061855
2  25 2 0 0 2.51723341061855
2  26 6 0 0 2.51723341061855
0

0101000
+57 0 -42 0 *
Wi

0101100
-56 0 -63 0 +41 0 +40 0 *
Fa
0  1e-07 2 0

0101000
+39 0 *
Ve
1.50000000993014e-07
-1.5 1.9 2.24948181012116
0 0

0101101
*
Ed
 1.5e-07 1 1 0
1  14 0 -6.14462546130741 -3.93290872547325
2  27 6 0 -6.14462546130741 -3.93290872547325
2  28 3 3 -6.14462546130741 -3.93290872547325
0

0101000
+37 0 -42 0 *
Ve
1.50000001017536e-07
-2.1 5.2 1.7844395566257
0 0

0101101
*
Ed
 1.5e-07 1 1 0
1  15 0 -7.32409926427382 -3.93791198393386
2  29 7 0 -7.32409926427382 -3.93791198393386
2  30 3 3 -7.32409926427382 -3.93791198393386
0

0101000
+35 0 -37 0 *
Ve
1.50000000915513e-07
0 5.2 1.7844395566257
0 0

0101101
*
Ed
 1.5e-07 1 1 0
1  16 0 -2.6 -0.5
2  31 8 0 -2.6 -0.5
2  32 3 3 -2.6 -0.5
0

0101000
+33 0 -35 0 *
Ve
1.50000001844441e-07
2.1 5.2 1.7844395566257
0 0

0101101
*
Ed
 1.5e-07 1 1 0
1  17 0 2.6 4.7
2  33 9 0 2.6 4.7
2  34 3 3 2.6 4.7
0

0101000
+33 0 -31 0 *
Ve
1.50000002391494e-07
1.5 1.9 2.24948181012116
0 0

0101101
*
Ed
 1.5e-07 1 1 0
1  18 0 -8.24548953058147 -4.85930225024151
2  35 10 0 -8.24548953058147 -4.85930225024151
2  36 3 3 -8.24548953058147 -4.85930225024151
0

0101000
+31 0 -29 0 *
Ed
 1.5e-07 1 1 0
1  19 0 -3.55839915695082 -1.34668242111666
2  37 4 0 -3.55839915695082 -1.34668242111666
2  38 3 3 -3.55839915695082 -1.34668242111666
0

0101000
+29 0 -62 0 *
Wi

0101100
-61 0 +41 0 +36 0 +34 0 +32 0 -30 0 -28 0 -27 0 *
Fa
0  1e-07 3 3

0101000
+26 0 *
Ed
 1e-07 1 1 0
1  20 0 0 2.24948181012116
2  39 10 0 0 2.24948181012116
2  40 4 0 0 2.24948181012116
0

0101000
+47 0 -29 0 *
Wi

0101100
-45 0 -60 0 +27 0 +24 0 *
Fa
0  1e-07 4 0

0101000
+23 0 *
Ed
 1e-07 1 1 0
1  21 0 0 2.24948181012116
2  41 6 0 0 2.24948181012116
2  42 7 0 0 2.24948181012116
0

0101000
+55 0 -37 0 *
Wi

0101100
-54 0 -40 0 +36 0 +21 0 *
Fa
0  1e-07 6 0

0101000
+20 0 *
Ed
 1e-07 1 1 0
1  22 0 0 1.7844395566257
2  43 7 0 0 1.7844395566257
2  44 8 0 0 1.7844395566257
0

0101000
+53 0 -35 0 *
Wi

0101100
-52 0 -21 0 +34 0 +18 0 *
Fa
0  1e-07 7 0

0101000
+17 0 *
Ed
 1e-07 1 1 0
1  23 0 0 1.7844395566257
4 C2 8 0 9 0
2  45 8 0 0 1.7844395566257
2  46 9 0 0 1.7844395566257
0

0101000
+51 0 -33 0 *
Wi

0101100
-50 0 -18 0 +32 0 +15 0 *
Fa
0  1e-07 8 0

0101000
+14 0 *
Ed
 1e-07 1 1 0
1  24 0 0 1.7844395566257
2  47 9 0 0 1.7844395566257
2  48 10 0 0 1.7844395566257
0

0101000
+49 0 -31 0 *
Wi

0101100
-48 0 -12 0 +30 0 +15 0 *
Fa
0  1e-07 9 0

0101000
+11 0 *
Wi

0101100
-46 0 -24 0 +28 0 +12 0 *
Fa
0  1e-07 10 0

0101000
+9 0 *
Sh

0101100
+58 0 +43 0 -38 0 +25 0 +22 0 -19 0 -16 0 -13 0 +10 0 +8 0 
*
So

0100000
+7 0 *
Ve
1e-07
-0 0 0
0 0

0101101
*
Ed
 1e-07 1 1 0
1  5 0 0 2.6
0

0101000
+57 0 -5 0 *
Ve
1e-07
-0 5.2 0
0 0

0101101
*
Ed
 1e-07 1 1 0
1  8 0 0 2.1
0

0101000
+3 0 -53 0 *
Co

1100000
+6 0 +4 0 +2 0 *

+1 0 