DBRep_DrawableShape

CASCADE Topology V1, (c) Matra-Datavision
Locations 19
1
              1               0               0               0 
              0               1               0               0 
              0               0               1               0 
1
              1               0               0               0 
              0               1               0               0 
              0               0               1               0 
2  2 -1 0
1
              1               0               0               0 
              0               1               0               0 
              0               0               1               0 
2  4 -1 0
1
              1               0               0               0 
              0               1               0               0 
              0               0               1               0 
2  6 1 4 -1 2 1 0
2  4 1 6 -1 0
1
              1               0               0               0 
              0               1               0               0 
              0               0               1               3 
2  9 -1 4 1 6 -1 0
2  6 -1 0
2  6 1 4 -1 9 1 2 1 0
2  2 -1 9 -1 4 1 6 -1 0
2  4 -1 9 1 0
2  4 -1 9 1 2 1 0
2  4 -1 2 1 0
2  2 -1 9 -1 4 1 0
2  6 1 4 -1 0
2  6 1 4 -1 9 1 0
Curve2ds 14
1 1.490018137049067 -0.072237393128358904 0.14038584553084091 0.99009687120735368 
1 2.5939067779538716 -2.4489204494636989 -0.71404068008251786 -0.70010421166230352 
1 0 -0.70710678118654724 1 0 
1 1.3999999999999999 -2 -1 0 
8 -0.70710678118654724 0.70710678118654791
1 1.3999999999999999 0 0 1 
8 -0.70710678118654724 0.70710678118654791
1 0 0 0 1 
1 0 0.70710678118654791 1 0 
1 -1.0324833021945108e-16 0.63523405092051144 1 0 
1 0 0.70710678118654791 1 0 
1 -1.3999999999999999 0.63523405092051144 1 0 
1 0 -0.70710678118654724 1 0 
1 0 -2 1 0 
1 -0.1038138669868538 0.025059517366960438 -0.14038584553084091 0.99009687120735368 
1 2.5237379347221105 -2.5177197546634398 -0.71404068008251786 -0.70010421166230352 
Curves 19
1 1.3999999999999999 2.9922 0 0 0 1 
8 -0.64121946702448451 0.7871393163424012
1 1.490018137049067 2.5432795505363011 2.4489204494636989 0.14038584553084091 -0.70010421166230352 0.70010421166230352 
1 2 0 0 -0.19660762957457448 0.98048224868840272 0 
1 2 0 0 0 0 1 
1 0 2.9922 2 1 -0 -0 
1 1.3999999999999999 2.9922 0 -1 0 0 
1 0 2.9922 0 0 0 1 
1 0 2.4922 2.5 0 -0.70710678118654757 0.70710678118654757 
1 0 1.9922 3 1 -0 -0 
1 0 0 0 1 0 0 
1 -1.3999999999999999 2.9922 0 1 0 0 
1 -2 0 0 0.19660762957457448 0.98048224868840272 0 
1 0 0 0 -1 0 0 
1 -1.3999999999999999 1.9922 3 1 0 0 
1 0 0 0 0 0 1 
1 -1.3999999999999999 2.9922 0 0 0 1 
1 -1.3999999999999999 2.9922 2 1 0 0 
8 -0.73948955889607348 0.68886922447081234
1 -1.5038138669868537 2.4744802453365602 2.5177197546634398 -0.14038584553084091 -0.70010421166230352 0.70010421166230352 
1 -2 0 0 0 0 1 
Polygon3D 0
PolygonOnTriangulations 64
2 1 2 
p 0.0166536666666667 1 0 2 
2 1 2 
p 0.0166536666666667 1 0 2 
2 2 3 
p 0.0166536666666667 1 -0.641219467024485 0.787139316342401 
2 3 4 
p 0.0166536666666667 1 -0.641219467024485 0.787139316342401 
2 1 3 
p 0.0166536666666667 1 0 3.05176356227018 
2 2 4 
p 0.0166536666666667 1 0 3.05176356227018 
2 2 3 
p 0.0166536666666667 1 0 3.05176356227018 
2 4 1 
p 0.0166536666666667 1 0 3.05176356227018 
2 4 1 
p 0.0166536666666667 1 0 3.05176356227018 
2 5 3 
p 0.0166536666666667 1 0 2.03185728519305 
2 1 2 
p 0.0166536666666667 1 0 2.03185728519305 
2 3 4 
p 0.0166536666666667 1 0 3 
2 1 2 
p 0.0166536666666667 1 0 3 
2 4 5 
p 0.0166536666666667 1 0 3 
2 4 5 
p 0.0166536666666667 1 0 3 
2 3 2 
p 0.0166536666666667 1 -0 1.4 
2 1 3 
p 0.0166536666666667 1 -0 1.4 
2 1 3 
p 0.0166536666666667 1 0 1.4 
2 2 4 
p 0.0166536666666667 1 0 1.4 
2 3 4 
p 0.0166536666666667 1 0 1.4 
2 1 4 
p 0.0166536666666667 1 0 1.4 
2 1 4 
p 0.0166536666666667 1 0 1.4 
2 4 3 
p 0.0166536666666667 1 0 2 
2 4 3 
p 0.0166536666666667 1 0 2 
2 1 2 
p 0.0166536666666667 1 -0.707106781186547 0.707106781186548 
2 3 4 
p 0.0166536666666667 1 -0.707106781186547 0.707106781186548 
2 2 4 
p 0.0166536666666667 1 -0 1.60052135552436 
2 3 2 
p 0.0166536666666667 1 -0 1.60052135552436 
2 1 3 
p 0.0166536666666667 1 0 2 
2 2 4 
p 0.0166536666666667 1 0 2 
2 1 2 
p 0.0166536666666667 1 0 2 
2 4 1 
p 0.0166536666666667 1 0 2 
2 4 1 
p 0.0166536666666667 1 0 2 
2 1 3 
p 0.0166536666666667 1 0 1.4 
2 2 4 
p 0.0166536666666667 1 0 1.4 
2 5 4 
p 0.0166536666666667 1 0 1.4 
2 1 4 
p 0.0166536666666667 1 0 1.4 
2 1 4 
p 0.0166536666666667 1 0 1.4 
2 2 4 
p 0.0166536666666667 1 0 3.05176356227018 
2 1 3 
p 0.0166536666666667 1 0 3.05176356227018 
2 6 5 
p 0.0166536666666667 1 0 3.05176356227018 
2 4 1 
p 0.0166536666666667 1 0 3.05176356227018 
2 4 1 
p 0.0166536666666667 1 0 3.05176356227018 
2 2 4 
p 0.0166536666666667 1 0 2 
2 1 3 
p 0.0166536666666667 1 0 2 
2 1 6 
p 0.0166536666666667 1 0 2 
2 4 6 
p 0.0166536666666667 1 0 2 
2 4 6 
p 0.0166536666666667 1 0 2 
2 5 3 
p 0.0166536666666667 1 -0.200521355524363 1.4 
2 2 4 
p 0.0166536666666667 1 -0.200521355524363 1.4 
2 6 5 
p 0.0166536666666667 1 0 2.03185728519305 
2 5 3 
p 0.0166536666666667 1 0 2.03185728519305 
2 1 2 
p 0.0166536666666667 1 0 3 
2 1 2 
p 0.0166536666666667 1 0 3 
2 1 2 
p 0.0166536666666667 1 0 2 
2 1 2 
p 0.0166536666666667 1 0 2 
2 2 3 
p 0.0166536666666667 1 0 1.4 
2 1 3 
p 0.0166536666666667 1 0 1.4 
2 1 2 
p 0.0166536666666667 1 -0.739489558896073 0.688869224470812 
2 2 3 
p 0.0166536666666667 1 -0.739489558896073 0.688869224470812 
2 1 2 
p 0.0166536666666667 1 0 3 
2 3 4 
p 0.0166536666666667 1 0 3 
2 4 5 
p 0.0166536666666667 1 0 3 
2 4 5 
p 0.0166536666666667 1 0 3 
Surfaces 9
1 2 0 0 -0.98048224868840284 -0.19660762957457451 0 -0.19660762957457451 0.98048224868840284 0 -0 0 -1 
1 0 2.4922 2.5 0 -0.70710678118654746 -0.70710678118654746 1 0 0 0 -0.70710678118654757 0.70710678118654757 
1 1.3999999999999999 2.9922 0 0 -1 0 -1 0 0 -0 -0 -1 
1 -1.3999999999999999 2.9922 0 0 1 0 1 0 0 0 0 -1 
1 -1.3999999999999999 2.4922 2.5 0 0.70710678118654746 0.70710678118654746 1 0 -0 0 -0.70710678118654757 0.70710678118654757 
1 1.0324833021945108e-16 1.3569659490794885 0 0 0 1 1 0 -0 -0 1 0 
1 0 0 0 0 1 0 1 0 0 0 0 -1 
1 0 0 0 0 -1 0 -1 0 0 -0 -0 -1 
1 -2 0 0 -0.98048224868840284 0.19660762957457451 0 0.19660762957457451 0.98048224868840284 0 0 0 -1 
Triangulations 19
5 3 1 4.46036504397568e-16
1.4 2.9922 0 1.4 2.9922 2 1.60052135552436 1.9922 3 2 0 0 2 0 3 3.05176356227018 0 3.05176356227018 -2 2.03185728519306 -3 0 0 0 -3 4 5 3 2 4 3 1 4 2 
4 2 1 0
1.4 2.9922 0 1.4 2.9922 2 0 2.9922 2 0 2.9922 0 0 0 0 -2 1.4 -2 1.4 0 4 1 2 4 2 3 
4 2 1 2.35513868802566e-16
0 2.9922 2 0 1.9922 3 1.4 2.9922 2 1.60052135552436 1.9922 3 0 -0.707106781186547 0 0.707106781186548 1.4 -0.707106781186547 1.60052135552436 0.707106781186548 2 1 3 4 2 3 
4 2 1 2.2377260456559e-16
2 0 0 2 0 3 1.4 2.9922 0 1.4 2.9922 3 0 0 0 -3 3.05176356227018 0 3.05176356227018 -3 3 1 2 3 2 4 
6 4 1 1.03248330219451e-16
0 0 0 2 0 0 1.4 2.9922 0 0 2.9922 0 -1.4 2.9922 0 -2 0 0 0 -1.35696594907949 2 -1.35696594907949 1.4 1.63523405092051 0 1.63523405092051 -1.4 1.63523405092051 -2 -1.35696594907949 5 6 1 4 5 1 3 1 2 3 4 1 
5 3 1 4.46036504397568e-16
1.4 2.9922 0 1.4 2.9922 2 1.60052135552436 1.9922 3 2 0 0 2 0 3 3.05176356227018 0 3.05176356227018 -2 2.03185728519306 -3 0 0 0 -3 4 5 3 2 4 3 1 4 2 
6 4 1 2.96059473233375e-16
2 0 0 1.60052135552436 1.9922 4.44089209850063e-16 0 1.9922 4.44089209850063e-16 0 0 0 -1.60052135552436 1.9922 4.44089209850063e-16 -2 0 0 2 -1.35696594907949 1.60052135552436 0.635234050920511 0 0.635234050920511 0 -1.35696594907949 -1.60052135552436 0.635234050920511 -2 -1.35696594907949 5 6 4 3 5 4 2 4 1 2 3 4 
4 2 1 0
0 0 0 0 0 3 2 0 0 2 0 3 0 0 0 -3 2 0 2 -3 3 1 2 3 2 4 
4 2 1 1.11022302462516e-16
1.4 2.9922 0 1.4 2.9922 3 0 2.9922 0 0 2.9922 3 0 0 0 -3 1.4 0 1.4 -3 3 1 2 3 2 4 
4 2 1 0
1.4 2.9922 0 1.4 2.9922 2 0 2.9922 2 0 2.9922 0 0 0 0 -2 1.4 -2 1.4 0 4 1 2 4 2 3 
4 2 1 0
-1.4 2.9922 0 -1.4 2.9922 2 0 2.9922 2 0 2.9922 0 0 0 0 -2 1.4 -2 1.4 0 4 1 2 4 2 3 
4 2 1 2.35513868802566e-16
-1.4 2.9922 2 -1.60052135552436 1.9922 3 0 2.9922 2 0 1.9922 3 5.55111512312578e-17 -0.707106781186548 -0.200521355524363 0.707106781186548 1.4 -0.707106781186547 1.4 0.707106781186548 4 2 1 4 1 3 
6 4 1 2.96059473233375e-16
2 0 0 1.60052135552436 1.9922 4.44089209850063e-16 0 1.9922 4.44089209850063e-16 0 0 0 -1.60052135552436 1.9922 4.44089209850063e-16 -2 0 0 2 -1.35696594907949 1.60052135552436 0.635234050920511 0 0.635234050920511 0 -1.35696594907949 -1.60052135552436 0.635234050920511 -2 -1.35696594907949 5 6 4 3 5 4 2 4 1 2 3 4 
4 2 1 1.11022302462516e-16
-1.4 2.9922 0 -1.4 2.9922 3 0 2.9922 0 0 2.9922 3 0 0 0 -3 1.4 0 1.4 -3 3 1 2 3 2 4 
4 2 1 0
-1.4 2.9922 0 -1.4 2.9922 2 0 2.9922 2 0 2.9922 0 0 0 0 -2 1.4 -2 1.4 0 4 1 2 4 2 3 
4 2 1 2.2377260456559e-16
-2 0 0 -2 0 3 -1.4 2.9922 0 -1.4 2.9922 3 0 0 0 -3 3.05176356227018 0 3.05176356227018 -3 3 1 2 3 2 4 
5 3 1 1.15277563368905e-16
-1.4 2.9922 0 -1.4 2.9922 2 -1.60052135552436 1.9922 3 -2 0 0 -2 0 3 3.05176356227018 0 3.05176356227018 -2 2.03185728519305 -3 0 0 0 -3 4 5 3 2 4 3 1 4 2 
5 3 1 1.15277563368905e-16
-1.4 2.9922 0 -1.4 2.9922 2 -1.60052135552436 1.9922 3 -2 0 0 -2 0 3 3.05176356227018 0 3.05176356227018 -2 2.03185728519305 -3 0 0 0 -3 4 5 3 2 4 3 1 4 2 
4 2 1 0
0 0 0 0 0 3 -2 0 0 -2 0 3 0 0 0 -3 2 0 2 -3 3 1 2 3 2 4 

TShapes 56
Ve
0.0001
1.4 2.9922 2
0 0

0101101
*
Ve
1e-07
1.4 2.9922 0
0 0

0101101
*
Ed
 1e-07 1 1 0
1  1 0 0 2
6  1 1 0
6  2 2 0
0

0101000
-56 3 +55 5 *
Ve
0.0001
1.60052135552436 1.9922 3
0 0

0101101
*
Ed
 1e-07 1 1 0
1  2 0 -0.641219467024485 0.787139316342401
2  1 2 0 -0.641219467024485 0.787139316342401
2  2 1 2 -0.641219467024485 0.787139316342401
6  3 1 2
6  4 3 0
0

0101000
+56 0 -53 0 *
Ve
1e-07
2 0 0
0 0

0101101
*
Ed
 1e-07 1 1 0
1  3 0 0 3.05176356227018
6  5 4 8
6  6 4 10
6  7 5 11
6  8 6 8
6  9 1 8
0

0101000
+51 11 -55 11 *
Ed
 1e-07 1 1 0
1  3 0 0 2.03185728519305
6  10 1 10
6  11 7 11
0

0101000
-53 13 +51 11 *
Ed
 1e-07 1 1 0
1  4 0 0 3
6  12 8 0
6  13 4 0
6  14 6 0
6  15 1 0
0

0101000
+51 5 -51 14 *
Wi

0101100
-54 2 -52 0 -50 7 +49 12 +48 2 *
Fa
0  1e-07 1 0
2  1
0101000
+47 3 *
Ve
1e-07
0 2.9922 2
0 0

0101101
*
Ed
 1e-07 1 1 0
1  5 0 -0 1.4
2  3 2 0 -0 1.4
2  4 3 2 -0 1.4
6  16 2 2
6  17 3 0
0

0101000
+45 0 -56 0 *
Ve
1e-07
0 2.9922 0
0 0

0101101
*
Ed
 1e-07 1 1 0
1  6 0 0 1.4
6  18 9 8
6  19 9 10
6  20 5 11
6  21 10 8
6  22 2 8
0

0101000
+55 11 -43 11 *
Ed
 1e-07 1 1 0
1  7 0 0 2
4 C2 3 0 4 0
6  23 2 0
6  24 11 0
0

0101000
-45 3 +43 5 *
Wi

0101100
+54 2 -44 0 -42 7 -41 2 *
Fa
0  1e-07 3 0
2  2
0101000
+40 3 *
Ve
1e-07
0 1.9922 3
0 0

0101101
*
Ed
 1e-07 1 1 0
1  8 0 -0.707106781186547 0.707106781186548
2  5 5 0 -0.707106781186547 0.707106781186548
2  6 2 0 -0.707106781186547 0.707106781186548
4 G1 5 0 2 0
6  25 3 0
6  26 12 0
0

0101000
+45 0 -38 0 *
Ed
 1e-07 1 1 0
1  9 0 -0 1.60052135552436
2  7 2 0 -0 1.60052135552436
2  8 6 15 -0 1.60052135552436
6  27 3 0
6  28 7 15
0

0101000
+38 0 -53 0 *
Wi

0101100
-37 0 +44 0 -36 0 +52 0 *
Fa
0  0 2 0
2  3
0101000
+35 0 *
Ve
1e-07
0 0 0
0 0

0101101
*
Ed
 1e-07 1 1 0
1  10 0 0 2
6  29 8 8
6  30 8 10
6  31 5 11
6  32 13 11
6  33 7 11
0

0101000
+33 11 -51 11 *
Ve
1e-07
-1.4 2.9922 0
0 0

0101101
*
Ed
 1e-07 1 1 0
1  11 0 0 1.4
6  34 14 8
6  35 14 10
6  36 5 11
6  37 15 8
6  38 11 8
0

0101000
+31 11 -43 11 *
Ve
1e-07
-2 0 0
0 0

0101101
*
Ed
 1e-07 1 1 0
1  12 0 0 3.05176356227018
6  39 16 10
6  40 16 8
6  41 5 11
6  42 17 8
6  43 18 8
0

0101000
+29 11 -31 11 *
Ed
 1e-07 1 1 0
1  13 0 0 2
6  44 19 10
6  45 19 8
6  46 5 11
6  47 13 11
6  48 7 11
0

0101000
+33 11 -29 11 *
Wi

0101100
+32 0 +50 0 +42 0 -30 0 -28 0 -27 0 *
Fa
0  1e-07 6 0
2  5
0101000
+26 6 *
Ve
0.0001
-1.60052135552436 1.9922 3
0 0

0101101
*
Ed
 1e-07 1 1 0
1  14 0 -0.200521355524363 1.4
2  9 5 0 -0.200521355524363 1.4
2  10 6 15 -0.200521355524363 1.4
6  49 7 15
6  50 12 0
0

0101000
+24 0 -38 0 *
Ed
 1e-07 1 1 0
1  12 0 0 2.03185728519305
6  51 7 11
6  52 18 10
0

0101000
-24 13 +29 11 *
Wi

0101100
+49 12 -36 0 +32 12 -23 0 -27 12 -22 12 *
Fa
0  1e-07 6 0
2  7
0101000
+21 17 *
Ed
 1e-07 1 1 0
1  15 0 0 3
4 C2 7 0 8 0
6  53 8 0
6  54 19 0
0

0101000
+33 5 -33 14 *
Wi

0101100
+19 0 -48 0 -32 18 +32 19 *
Fa
0  1e-07 7 0
2  8
0101000
+18 0 *
Ve
0.0001
-1.4 2.9922 2
0 0

0101101
*
Ed
 1e-07 1 1 0
1  16 0 0 2
6  55 11 0
6  56 18 0
0

0101000
-16 3 +31 5 *
Ed
 1e-07 1 1 0
1  17 0 0 1.4
2  11 5 0 0 1.4
2  12 4 2 0 1.4
6  57 11 2
6  58 12 0
0

0101000
+16 0 -45 0 *
Wi

0101100
+15 2 +14 0 -30 7 -41 2 *
Fa
0  1e-07 4 0
2  11
0101000
+13 3 *
Ed
 1e-07 1 1 0
1  18 0 -0.739489558896073 0.688869224470812
2  13 5 0 -0.739489558896073 0.688869224470812
2  14 9 2 -0.739489558896073 0.688869224470812
6  59 12 0
6  60 18 2
0

0101000
+16 0 -24 0 *
Wi

0101100
-11 0 +14 0 -23 0 +37 0 *
Fa
0  0 5 0
2  12
0101000
+10 0 *
Ed
 1e-07 1 1 0
1  19 0 0 3
6  61 16 0
6  62 19 0
6  63 17 0
6  64 18 0
0

0101000
+29 5 -29 14 *
Wi

0101100
-15 2 -11 0 -28 7 +22 12 +8 2 *
Fa
0  1e-07 9 0
2  18
0101000
+7 3 *
Wi

0101100
+19 0 -8 0 -27 18 +27 19 *
Fa
0  1e-07 8 0
2  19
0101000
+5 0 *
Sh

0101100
-46 2 -39 2 -34 0 -25 16 +20 15 -17 2 +12 2 -9 0 +6 2 +4 2 
*
So

0100000
+3 0 *
Co

1100000
+2 1 *

+1 0 