DBRep_DrawableShape

CASCADE Topology V1, (c) Matra-Datavision
Locations 31
1
              1               0               0               0 
              0               1               0               0 
              0               0               1               0 
1
              1               0               0               0 
              0               1               0               0 
              0               0               1               0 
1
              1               0               0               0 
              0               1               0               0 
              0               0               1               0 
2  2 1 3 1 0
2  2 -1 0
1
              1               0               0               0 
              0               1               0               0 
              0               0               1               0 
2  6 -1 2 -1 0
2  6 -1 0
1
              1               0               0               0 
              0               1               0               0 
              0               0               1               0 
1
              1               0               0               0 
              0               1               0               0 
              0               0               1               0 
2  9 1 10 -1 2 1 0
2  10 1 9 -1 0
2  9 -1 0
2  6 -1 2 -1 10 1 9 -1 0
1
              1               0               0               0 
              0               1               0               0 
              0               0               1               3 
2  9 1 10 -1 15 1 2 1 0
2  15 -1 10 1 9 -1 0
2  6 -1 2 -1 15 -1 10 1 9 -1 0
2  3 -1 2 -1 0
2  10 -1 15 1 2 1 0
2  10 -1 2 1 3 1 0
2  3 -1 2 -1 10 1 9 -1 0
2  10 -1 15 1 2 1 3 1 0
2  2 -1 15 -1 10 1 0
2  3 -1 2 -1 15 -1 10 1 9 -1 0
2  9 1 10 -1 0
2  9 1 10 -1 15 1 0
1
              1               0               0              -1 
              0               1               0             0.3 
              0               0               1               2 
1
              1               0               0              -1 
              0               1               0               0 
              0               0               1               2 
2  2 1 3 1 29 -1 0
2  29 -1 0
Curve2ds 42
1 1.490018137049067 -0.072237393128358904 0.14038584553084091 0.99009687120735368 
1 2 0 0 -1 
1 0 -0.70710678118654757 1 0 
1 0 0 0 1 
1 1.3999999999999999 0 0 1 
1 0 0.70710678118654757 1 0 
1 0 0 1 0 
1 0 -0 1 0 
1 0 -3 1 0 
1 0 0.70710678118654757 1 0 
1 0 -3 1 0 
1 0 0 0 -1 
1 0 -0 0 -1 
1 0 -0.70710678118654757 1 0 
1 -0.1038138669868538 0.025059517366960438 -0.14038584553084091 0.99009687120735368 
1 2 0 0 -1 
1 0 0 1 0 
1 0 0 1 0 
1 1 -2 0 -1 
1 0.5 0 0 -1 
1 0 0 0 1 
1 0 -2 1 0 
1 0 0 1 0 
1 0 0 0 -1 
1 0 0 0 1 
1 0 0 0 1 
1 0 0 1 0 
1 0 0 1 0 
1 0 2 1 0 
1 1 -2 0 -1 
1 0.5 0 0 1 
1 0 0 1 0 
1 0.5 0 0 1 
1 0 2 1 0 
1 0.5 0 0 -1 
1 2 0 0 1 
1 0 0 0 1 
1 0 2 1 0 
1 0 -2 1 0 
1 0 2 1 0 
1 0 0 0 -1 
1 2 0 0 1 
Curves 35
1 1.3999999999999999 2.9922 0 0 0 1 
8 -0.64121946702448451 0.7871393163424012
1 1.490018137049067 2.5432795505363011 2.4489204494636989 0.14038584553084091 -0.70010421166230352 0.70010421166230352 
1 2 0 0 -0.19660762957457451 0.98048224868840284 0 
1 2 0 0 -0.19660762957457451 0.98048224868840284 0 
1 2 0 0 0 0 1 
1 0 2.9922 2 1 0 0 
1 1.3999999999999999 2.9922 0 -1 0 0 
1 0 2.9922 0 0 0 1 
1 0 2.4922 2.5 0 -0.70710678118654757 0.70710678118654757 
1 0 1.9922 3 1 0 0 
1 0 0 0 1 0 0 
1 -1.3999999999999999 2.9922 0 1 0 0 
1 -2 0 0 0.19660762957457451 0.98048224868840284 0 
1 0 0 0 -1 0 0 
1 0 0 0 1 0 0 
1 -1.3999999999999999 1.9922 3 1 0 0 
1 0 0 0 -1 0 0 
1 -2 0 0 0.19660762957457451 0.98048224868840284 0 
1 0 0 0 0 0 1 
1 -1.3999999999999999 2.9922 0 0 0 1 
1 -1.3999999999999999 2.9922 2 1 0 0 
8 -0.73948955889607348 0.68886922447081234
1 -1.5038138669868537 2.4744802453365602 2.5177197546634398 -0.14038584553084091 -0.70010421166230352 0.70010421166230352 
1 -2 0 0 0 0 1 
1 0 0 0 0 0 1 
1 0 0 0.5 -0 1 0 
1 0 2 0 0 0 1 
1 0 0 0 -0 1 0 
1 0 0 0 1 0 -0 
1 2 0 0 0 0 1 
1 0 0 0.5 1 0 -0 
1 0 2 0.5 1 0 -0 
1 2 0 0.5 -0 1 0 
1 0 2 0 1 0 -0 
1 2 2 0 0 0 1 
1 2 0 0 -0 1 0 
Polygon3D 0
PolygonOnTriangulations 102
2 1 2 
p 0.0166536666666667 1 0 2 
2 1 2 
p 0.0166536666666667 1 0 2 
2 2 3 
p 0.0166536666666667 1 -0.641219467024485 0.787139316342401 
2 3 4 
p 0.0166536666666667 1 -0.641219467024485 0.787139316342401 
2 4 1 
p 0.0166536666666667 1 0 3.05176356227018 
2 2 3 
p 0.0166536666666667 1 0 3.05176356227018 
2 5 3 
p 0.0166536666666667 1 0 2.03185728519305 
2 1 2 
p 0.0166536666666667 1 0 2.03185728519305 
2 4 5 
p 0.0166536666666667 1 0 3 
2 3 4 
p 0.0166536666666667 1 0 3 
2 2 3 
p 0.0166536666666667 1 0 3 
2 2 3 
p 0.0166536666666667 1 0 3 
2 3 2 
p 0.0166536666666667 1 -0 1.4 
2 1 3 
p 0.0166536666666667 1 -0 1.4 
2 1 4 
p 0.0166536666666667 1 0 1.4 
2 3 4 
p 0.0166536666666667 1 0 1.4 
2 4 3 
p 0.0166536666666667 1 0 2 
2 4 3 
p 0.0166536666666667 1 0 2 
2 1 2 
p 0.0166536666666667 1 -0.707106781186547 0.707106781186548 
2 3 4 
p 0.0166536666666667 1 -0.707106781186547 0.707106781186548 
2 2 4 
p 0.0166536666666667 1 -0 1.60052135552436 
2 3 2 
p 0.0166536666666667 1 -0 1.60052135552436 
2 1 2 
p 0.0166536666666667 1 0 2 
2 1 3 
p 0.0166536666666667 1 0 2 
2 1 2 
p 0.0166536666666667 1 0 2 
2 1 2 
p 0.0166536666666667 1 0 2 
2 5 4 
p 0.0166536666666667 1 0 1.4 
2 1 4 
p 0.0166536666666667 1 0 1.4 
2 6 5 
p 0.0166536666666667 1 0 3.05176356227018 
2 4 1 
p 0.0166536666666667 1 0 3.05176356227018 
2 1 6 
p 0.0166536666666667 1 0 2 
2 1 3 
p 0.0166536666666667 1 0 2 
2 1 2 
p 0.0166536666666667 1 0 2 
2 1 2 
p 0.0166536666666667 1 0 2 
2 4 1 
p 0.0166536666666667 1 0 2 
2 2 4 
p 0.0166536666666667 1 0 2 
2 4 3 
p 0.0166536666666667 1 0 2 
2 4 3 
p 0.0166536666666667 1 0 2 
2 5 3 
p 0.0166536666666667 1 -0.200521355524363 1.4 
2 2 4 
p 0.0166536666666667 1 -0.200521355524363 1.4 
2 4 6 
p 0.0166536666666667 1 0 2 
2 2 4 
p 0.0166536666666667 1 0 2 
2 4 3 
p 0.0166536666666667 1 0 2 
2 4 3 
p 0.0166536666666667 1 0 2 
2 6 5 
p 0.0166536666666667 1 0 2.03185728519305 
2 5 3 
p 0.0166536666666667 1 0 2.03185728519305 
2 1 2 
p 0.0166536666666667 1 0 3 
2 1 2 
p 0.0166536666666667 1 0 3 
2 1 2 
p 0.0166536666666667 1 0 2 
2 1 2 
p 0.0166536666666667 1 0 2 
2 2 3 
p 0.0166536666666667 1 0 1.4 
2 1 3 
p 0.0166536666666667 1 0 1.4 
2 1 2 
p 0.0166536666666667 1 -0.739489558896073 0.688869224470812 
2 2 3 
p 0.0166536666666667 1 -0.739489558896073 0.688869224470812 
2 4 5 
p 0.0166536666666667 1 0 3 
2 3 4 
p 0.0166536666666667 1 0 3 
2 2 3 
p 0.0166536666666667 1 0 3 
2 2 3 
p 0.0166536666666667 1 0 3 
2 1 2 
p 0.0075 1 0 0.5 
2 1 4 
p 0.0075 1 0 0.5 
2 7 6 
p 0.0166536666666667 1 0 0.5 
2 1 3 
p 0.0166536666666667 1 0 0.5 
2 1 3 
p 0.0075 1 0 0.5 
2 7 6 
p 0.0166536666666667 1 0 0.5 
2 2 3 
p 0.0075 1 0 2 
2 1 2 
p 0.0075 1 0 2 
2 1 2 
p 0.0075 1 0 2 
2 1 2 
p 0.0166536666666667 1 0 2 
2 4 3 
p 0.0075 1 0 0.5 
2 1 4 
p 0.0075 1 0 0.5 
2 1 4 
p 0.0075 1 0 2 
2 1 2 
p 0.0075 1 0 2 
2 1 2 
p 0.0075 1 0 2 
2 1 2 
p 0.0166536666666667 1 0 2 
2 1 2 
p 0.0075 1 0 2 
2 1 4 
p 0.0075 1 0 2 
2 1 2 
p 0.0075 1 0 0.5 
2 2 3 
p 0.0075 1 0 0.5 
2 7 6 
p 0.0166536666666667 1 0 0.5 
2 2 3 
p 0.0166536666666667 1 0 0.5 
2 2 3 
p 0.0075 1 0 0.5 
2 7 6 
p 0.0166536666666667 1 0 0.5 
2 4 3 
p 0.0075 1 0 2 
2 1 4 
p 0.0075 1 0 2 
2 4 3 
p 0.0075 1 0 2 
2 2 3 
p 0.0075 1 0 2 
2 2 3 
p 0.0075 1 0 2 
2 2 3 
p 0.0166536666666667 1 0 2 
2 2 3 
p 0.0075 1 0 2 
2 4 3 
p 0.0075 1 0 2 
2 4 3 
p 0.0075 1 0 2 
2 4 3 
p 0.0166536666666667 1 0 2 
2 1 2 
p 0.0075 1 0 2 
2 2 3 
p 0.0075 1 0 2 
2 2 3 
p 0.0075 1 0 2 
2 2 3 
p 0.0166536666666667 1 0 2 
2 4 3 
p 0.0075 1 0 0.5 
2 2 3 
p 0.0075 1 0 0.5 
2 1 4 
p 0.0075 1 0 2 
2 4 3 
p 0.0075 1 0 2 
2 4 3 
p 0.0075 1 0 2 
2 4 3 
p 0.0166536666666667 1 0 2 
Surfaces 16
1 2 0 0 -0.98048224868840284 -0.19660762957457451 0 -0.19660762957457451 0.98048224868840284 0 -0 0 -1 
1 0 2.4922 2.5 0 -0.70710678118654757 -0.70710678118654757 1 0 0 0 -0.70710678118654757 0.70710678118654757 
1 0 0 0 0 1 0 1 0 0 0 0 -1 
1 1.3999999999999999 2.9922 0 0 -1 0 -1 0 0 -0 -0 -1 
1 -1.3999999999999999 2.9922 0 0 1 0 1 0 0 0 0 -1 
1 -1.3999999999999999 2.4922 2.5 0 0.70710678118654757 0.70710678118654757 1 0 -0 0 -0.70710678118654757 0.70710678118654757 
1 9.9999999999999998e-17 1.3569659490794885 0 0 0 1 1 0 -0 -0 1 0 
1 0 0 0 0 -1 0 -1 0 0 -0 -0 -1 
1 9.9999999999999998e-17 1.3569659490794885 0 0 0 1 1 0 -0 -0 1 0 
1 -2 0 0 -0.98048224868840284 0.19660762957457451 0 0.19660762957457451 0.98048224868840284 0 0 0 -1 
1 0 0 0 1 0 -0 0 0 1 0 -1 0 
1 0 0 0 -0 1 0 0 0 1 1 0 -0 
1 0 0 0.5 0 0 1 1 0 -0 -0 1 0 
1 0 2 0 -0 1 0 0 0 1 1 0 -0 
1 0 0 0 0 0 1 1 0 -0 -0 1 0 
1 2 0 0 1 0 -0 0 0 1 0 -1 0 
Triangulations 28
5 3 1 2.30972421426296e-16
1.4 2.9922 0 1.4 2.9922 2 1.60052135552436 1.9922 3 2 0 0 2 0 3 3.05176356227018 0 3.05176356227018 -2 2.03185728519305 -3 0 0 0 -3 4 5 3 2 4 3 1 4 2 
4 2 1 0
1.4 2.9922 0 1.4 2.9922 2 0 2.9922 2 0 2.9922 0 0 0 0 -2 1.4 -2 1.4 0 4 1 2 4 2 3 
4 2 1 3.92523114670944e-16
0 2.9922 2 0 1.9922 3 1.4 2.9922 2 1.60052135552436 1.9922 3 0 -0.707106781186547 0 0.707106781186548 1.4 -0.707106781186547 1.60052135552436 0.707106781186548 2 1 3 4 2 3 
6 4 1 1e-16
0 0 0 2 0 0 1.4 2.9922 0 0 2.9922 0 -1.4 2.9922 0 -2 0 0 0 -1.35696594907949 2 -1.35696594907949 1.4 1.63523405092051 0 1.63523405092051 -1.4 1.63523405092051 -2 -1.35696594907949 5 6 1 4 5 1 3 1 2 3 4 1 
6 4 1 1.11022302462516e-16
2 0 0 1.60052135552436 1.9922 0 0 1.9922 0 0 0 0 -1.60052135552436 1.9922 0 -2 0 0 2 -1.35696594907949 1.60052135552436 0.635234050920511 0 0.635234050920511 0 -1.35696594907949 -1.60052135552436 0.635234050920511 -2 -1.35696594907949 5 6 4 3 5 4 2 4 1 2 3 4 
4 2 1 0
0 0 0 0 0 3 2 0 0 2 0 3 0 0 0 -3 2 0 2 -3 3 1 2 3 2 4 
8 6 1 0
0 0 0 2 0 0 2 0 3 0 0 3 0 0 2.5 1 0 2.5 1 0 2 0 0 2 0 0 2 0 2 -3 0 -3 0 -2.5 1 -2.5 1 -2 0 -2 6 5 4 3 7 6 3 6 4 1 8 7 2 1 7 2 7 3 
8 6 1 0
0 0 0 2 0 0 2 0 3 0 0 3 0 0 2.5 1 0 2.5 1 0 2 0 0 2 0 0 2 0 2 -3 0 -3 0 -2.5 1 -2.5 1 -2 0 -2 6 5 4 3 7 6 3 6 4 1 8 7 2 1 7 2 7 3 
4 2 1 0
-1.4 2.9922 0 -1.4 2.9922 2 0 2.9922 2 0 2.9922 0 0 0 0 -2 1.4 -2 1.4 0 4 1 2 4 2 3 
4 2 1 3.92523114670944e-16
-1.4 2.9922 2 -1.60052135552436 1.9922 3 0 2.9922 2 0 1.9922 3 0 -0.707106781186547 -0.200521355524363 0.707106781186548 1.4 -0.707106781186547 1.4 0.707106781186548 4 2 1 4 1 3 
5 3 1 2.30972421426296e-16
-1.4 2.9922 0 -1.4 2.9922 2 -1.60052135552436 1.9922 3 -2 0 0 -2 0 3 3.05176356227018 0 3.05176356227018 -2 2.03185728519305 -3 0 0 0 -3 4 5 3 2 4 3 1 4 2 
4 2 1 0
0 0 0 0 0 3 -2 0 0 -2 0 3 0 0 0 -3 2 0 2 -3 3 1 2 3 2 4 
8 6 1 0
0 0 0 -2 0 0 -2 0 3 0 0 3 0 0 2.5 -1 0 2.5 -1 0 2 0 0 2 0 0 2 0 2 -3 0 -3 0 -2.5 1 -2.5 1 -2 0 -2 6 5 4 3 7 6 3 6 4 1 8 7 2 1 7 2 7 3 
8 6 1 0
0 0 0 -2 0 0 -2 0 3 0 0 3 0 0 2.5 -1 0 2.5 -1 0 2 0 0 2 0 0 2 0 2 -3 0 -3 0 -2.5 1 -2.5 1 -2 0 -2 6 5 4 3 7 6 3 6 4 1 8 7 2 1 7 2 7 3 
4 2 1 0
0 0 0 0 0 0.5 0 2 0.5 0 2 0 0 0 0.5 0 0.5 -2 0 -2 2 4 3 2 1 4 
4 2 1 0
0 0 0 2 0 0 2 0 0.5 0 0 0.5 0 0 0 2 0.5 2 0.5 0 3 2 1 3 1 4 
4 2 1 0
-1 0 2 0 0 2 -1 0 2.5 0 0 2.5 1 -2 0 -2 1 -2.5 0 -2.5 1 4 3 1 2 4 
4 2 1 0
-1 0 2 0 0 2 -1 0 2.5 0 0 2.5 1 -2 0 -2 1 -2.5 0 -2.5 1 4 3 1 2 4 
4 2 1 0
0 0 0.5 0 2 0.5 2 2 0.5 2 0 0.5 0 0 0 2 2 2 2 0 3 2 1 3 1 4 
5 3 1 0
-1 0 2.5 -1 2 2.5 1 2 2.5 1 0 2.5 0 0 2.5 0 0 0 2 2 2 2 0 1 0 2 1 5 3 5 4 3 2 5 
5 3 1 0
-1 0 2.5 -1 2 2.5 1 2 2.5 1 0 2.5 0 0 2.5 0 0 0 2 2 2 2 0 1 0 2 1 5 3 5 4 3 2 5 
4 2 1 0
0 2 0 2 2 0 2 2 0.5 0 2 0.5 0 0 0 2 0.5 2 0.5 0 3 2 1 3 1 4 
4 2 1 0
0 0 0 0 2 0 2 2 0 2 0 0 0 0 0 2 2 2 2 0 3 2 1 3 1 4 
5 3 1 0
-1 0 2 -1 2 2 1 2 2 1 0 2 0 0 2 0 0 0 2 2 2 2 0 1 0 2 1 5 3 5 4 3 2 5 
5 3 1 0
-1 0 2 -1 2 2 1 2 2 1 0 2 0 0 2 0 0 0 2 2 2 2 0 1 0 2 1 5 3 5 4 3 2 5 
4 2 1 0
2 0 0 2 0 0.5 2 2 0.5 2 2 0 0 0 0.5 0 0.5 -2 0 -2 2 4 3 2 1 4 
4 2 1 0
0 0 2 1 0 2 1 0 2.5 0 0 2.5 0 -2 1 -2 1 -2.5 0 -2.5 2 4 3 2 1 4 
4 2 1 0
0 0 2 1 0 2 1 0 2.5 0 0 2.5 0 -2 1 -2 1 -2.5 0 -2.5 2 4 3 2 1 4 

TShapes 95
Ve
0.0001
1.4 2.9922 2
0 0

0101101
*
Ve
1e-07
1.4 2.9922 0
0 0

0101101
*
Ed
 1e-07 1 1 0
1  1 0 0 2
6  1 1 0
6  2 2 0
0

0101000
-95 7 +94 7 *
Ve
0.0001
1.60052135552436 1.9922 3
0 0

0101101
*
Ed
 1e-07 1 1 0
1  2 0 -0.641219467024485 0.787139316342401
6  3 1 2
6  4 3 0
2  1 2 0 -0.641219467024485 0.787139316342401
0

0101000
+95 8 -92 8 *
Ve
1e-07
2 0 0
0 0

0101101
*
Ed
 1e-07 1 1 0
1  3 0 0 3.05176356227018
6  5 1 12
6  6 4 13
0

0101000
+90 14 -94 14 *
Ve
1e-07
2 0 3
0 0

0101101
*
Ed
 1e-07 1 1 0
1  4 0 0 2.03185728519305
6  7 1 17
6  8 5 13
0

0101000
-92 18 +88 18 *
Ed
 1e-07 1 1 0
1  5 0 0 3
6  9 1 0
6  10 6 0
2  2 3 0 0 3
6  11 7 19
6  12 8 19
0

0101000
+90 7 -88 7 *
Wi

0101100
-93 2 -91 0 -89 11 +87 16 +86 2 *
Fa
0  1e-07 1 0
2  1
0111000
+85 5 *
Ve
1e-07
0 2.9922 2
0 0

0101101
*
Ed
 1e-07 1 1 0
1  6 0 -0 1.4
6  13 2 2
6  14 3 0
2  3 2 0 -0 1.4
0

0101000
+83 8 -95 8 *
Ve
1e-07
0 2.9922 0
0 0

0101101
*
Ed
 1e-07 1 1 0
1  7 0 0 1.4
6  15 2 12
6  16 4 13
0

0101000
+94 14 -81 14 *
Ed
 1e-07 1 1 0
1  8 0 0 2
4 C2 4 0 5 0
6  17 2 0
6  18 9 0
0

0101000
-83 7 +81 7 *
Wi

0101100
+93 2 -82 0 -80 11 -79 2 *
Fa
0  1e-07 4 0
2  2
0101000
+78 5 *
Ve
1e-07
0 1.9922 3
0 0

0101101
*
Ed
 1e-07 1 1 0
1  9 0 -0.707106781186547 0.707106781186548
4 G1 2 0 6 0
6  19 3 0
6  20 10 0
2  4 2 0 -0.707106781186547 0.707106781186548
2  5 6 0 -0.707106781186547 0.707106781186548
0

0101000
+83 8 -76 8 *
Ed
 1e-07 1 1 0
1  10 0 -0 1.60052135552436
6  21 3 0
6  22 5 20
2  6 2 0 -0 1.60052135552436
0

0101000
+76 8 -92 8 *
Wi

0101100
-75 0 +82 0 -74 0 +91 0 *
Fa
0  1e-07 2 0
2  3
0101000
+73 0 *
Ve
1e-07
0 0 0
0 0

0101101
*
Ed
 1e-07 1 1 0
1  11 0 0 2
6  23 4 13
6  24 6 12
2  7 3 12 0 2
6  25 7 22
6  26 8 22
0

0101000
+71 14 -90 14 *
Ve
1e-07
-1.4 2.9922 0
0 0

0101101
*
Ed
 1e-07 1 1 0
1  12 0 0 1.4
6  27 4 13
6  28 9 12
0

0101000
+69 14 -81 14 *
Ve
1e-07
-2 0 0
0 0

0101101
*
Ed
 1e-07 1 1 0
1  13 0 0 3.05176356227018
6  29 4 13
6  30 11 12
0

0101000
+67 14 -69 14 *
Ed
 1e-07 1 1 0
1  14 0 0 2
6  31 4 13
6  32 12 12
2  8 8 12 0 2
6  33 13 22
6  34 14 22
0

0101000
+71 14 -67 14 *
Wi

0101100
+70 0 +89 0 +80 0 -68 0 -66 0 -65 0 *
Fa
0  1e-07 7 0
2  4
0101000
+64 9 *
Ve
1e-07
0 0 3
0 0

0101101
*
Ed
 1e-07 1 1 0
1  15 0 0 2
6  35 5 13
6  36 6 17
2  9 3 17 0 2
6  37 7 25
6  38 8 25
0

0101000
+62 18 -88 18 *
Ve
0.0001
-1.60052135552436 1.9922 3
0 0

0101101
*
Ed
 1e-07 1 1 0
1  16 0 -0.200521355524363 1.4
6  39 5 20
6  40 10 0
2  10 6 0 -0.200521355524363 1.4
0

0101000
+60 8 -76 8 *
Ve
1e-07
-2 0 3
0 0

0101101
*
Ed
 1e-07 1 1 0
1  17 0 0 2
6  41 5 13
6  42 12 17
2  11 8 17 0 2
6  43 13 25
6  44 14 25
0

0101000
+62 18 -58 18 *
Ed
 1e-07 1 1 0
1  18 0 0 2.03185728519305
6  45 5 13
6  46 11 17
0

0101000
-60 18 +58 18 *
Wi

0101100
+87 16 -74 0 +61 16 -59 0 -57 16 -56 16 *
Fa
0  1e-07 9 0
2  5
0101000
+55 24 *
Ed
 1e-07 1 1 0
1  19 0 0 3
4 C2 3 0 8 0
6  47 6 0
6  48 12 0
2  12 3 0 0 3
2  13 8 0 0 3
0

0101000
+71 7 -62 7 *
Wi

0101100
+53 0 -86 0 -70 26 +61 27 *
Fa
0  1e-07 3 0
2  6
0111000
+52 0 *
Ve
0.0001
-1.4 2.9922 2
0 0

0101101
*
Ed
 1e-07 1 1 0
1  20 0 0 2
6  49 9 0
6  50 11 0
0

0101000
-50 7 +69 7 *
Ed
 1e-07 1 1 0
1  21 0 0 1.4
6  51 9 2
6  52 10 0
2  14 6 0 0 1.4
0

0101000
+50 8 -83 8 *
Wi

0101100
+49 2 +48 0 -68 11 -79 2 *
Fa
0  1e-07 5 0
2  9
0101000
+47 5 *
Ed
 1e-07 1 1 0
1  22 0 -0.739489558896073 0.688869224470812
6  53 10 0
6  54 11 2
2  15 6 0 -0.739489558896073 0.688869224470812
0

0101000
+50 8 -60 8 *
Wi

0101100
-45 0 +48 0 -59 0 +75 0 *
Fa
0  1e-07 6 0
2  10
0101000
+44 0 *
Ed
 1e-07 1 1 0
1  23 0 0 3
6  55 11 0
6  56 12 0
2  16 8 0 0 3
6  57 13 19
6  58 14 19
0

0101000
+67 7 -58 7 *
Wi

0101100
-49 2 -45 0 -66 11 +56 16 +42 2 *
Fa
0  1e-07 10 0
2  11
0111000
+41 5 *
Wi

0101100
+53 0 -42 0 -65 26 +57 27 *
Fa
0  1e-07 8 0
2  12
0111000
+39 0 *
Sh

0101100
-84 4 -77 4 -72 3 -63 21 +54 23 -51 4 +46 4 -43 3 +40 4 +38 4 
*
Ve
2.12133034355964e-07
0 0 0.5
0 0

0101101
*
Ve
2.12133034355964e-07
0 0 0
0 0

0101101
*
Ed
 1e-07 1 1 0
1  24 0 0 0.5
2  17 11 0 0 0.5
2  18 12 0 0 0.5
6  59 15 0
6  60 16 0
2  19 8 30 0 0.5
6  61 13 31
6  62 17 31
6  63 18 31
6  64 14 31
0

0101000
-36 0 +35 0 *
Ve
1e-07
0 2 0.5
0 0

0101101
*
Ed
 1e-07 1 1 0
1  25 0 0 2
2  20 11 0 0 2
2  21 13 0 0 2
6  65 15 0
6  66 19 0
6  67 20 31
6  68 21 31
0

0101000
-33 0 +36 0 *
Ve
1e-07
0 2 0
0 0

0101101
*
Ed
 1e-07 1 1 0
1  26 0 0 0.5
2  22 11 0 0 0.5
2  23 14 0 0 0.5
6  69 15 0
6  70 22 0
0

0101000
-33 0 +31 0 *
Ed
 1e-07 1 1 0
1  27 0 0 2
2  24 11 0 0 2
2  25 15 0 0 2
6  71 15 0
6  72 23 0
6  73 24 31
6  74 25 31
0

0101000
-31 0 +35 0 *
Wi

0101100
-34 0 -32 0 +30 0 +29 0 *
Fa
0  1e-07 11 0
2  15
0111000
+28 0 *
Ve
2.12133034355964e-07
2 0 0
0 0

0101101
*
Ed
 1e-07 1 1 0
1  28 0 0 2
2  26 12 0 0 2
2  27 15 0 0 2
6  75 16 0
6  76 23 0
0

0101000
-26 0 +35 0 *
Ve
2.12133034355964e-07
2 0 0.5
0 0

0101101
*
Ed
 1e-07 1 1 0
1  29 0 0 0.5
2  28 16 0 0 0.5
2  29 12 0 0 0.5
6  77 26 0
6  78 16 0
2  30 3 30 0 0.5
6  79 7 31
6  80 27 31
6  81 28 31
6  82 8 31
0

0101000
-24 0 +26 0 *
Ed
 1e-07 1 1 0
1  30 0 0 2
2  31 12 0 0 2
2  32 13 0 0 2
6  83 16 0
6  84 19 0
0

0101000
-24 0 +36 0 *
Wi

0101100
-25 0 -23 0 +22 0 +34 0 *
Fa
0  1e-07 12 0
2  16
0111000
+21 0 *
Ve
1e-07
2 2 0.5
0 0

0101101
*
Ed
 1e-07 1 1 0
1  31 0 0 2
2  33 14 0 0 2
2  34 13 0 0 2
6  85 22 0
6  86 19 0
6  87 20 31
6  88 21 31
0

0101000
-19 0 +33 0 *
Ed
 1e-07 1 1 0
1  32 0 0 2
2  35 16 0 0 2
2  36 13 0 0 2
6  89 26 0
6  90 19 0
6  91 20 31
6  92 21 31
0

0101000
-19 0 +24 0 *
Wi

0101100
-32 0 -18 0 +17 0 +22 0 *
Fa
0  1e-07 13 0
2  19
0111000
+16 0 *
Ve
1e-07
2 2 0
0 0

0101101
*
Ed
 1e-07 1 1 0
1  33 0 0 2
2  37 14 0 0 2
2  38 15 0 0 2
6  93 22 0
6  94 23 0
6  95 24 31
6  96 25 31
0

0101000
-14 0 +31 0 *
Ed
 1e-07 1 1 0
1  34 0 0 0.5
2  39 16 0 0 0.5
2  40 14 0 0 0.5
6  97 26 0
6  98 22 0
0

0101000
-19 0 +14 0 *
Wi

0101100
-13 0 -12 0 +18 0 +30 0 *
Fa
0  1e-07 14 0
2  22
0111000
+11 0 *
Ed
 1e-07 1 1 0
1  35 0 0 2
2  41 16 0 0 2
2  42 15 0 0 2
6  99 26 0
6  100 23 0
6  101 24 31
6  102 25 31
0

0101000
-14 0 +26 0 *
Wi

0101100
-29 0 -13 0 +9 0 +25 0 *
Fa
0  1e-07 15 0
2  23
0111000
+8 0 *
Wi

0101100
-23 0 -17 0 +12 0 +9 0 *
Fa
0  1e-07 16 0
2  26
0111000
+6 0 *
Sh

0101100
+27 28 +20 28 -15 28 -10 28 +7 28 -5 28 *
So

0100000
+37 0 +4 0 *
Co

0100000
+3 0 *
Co

1100000
+2 1 *

+1 0 