DBRep_DrawableShape

CASCADE Topology V1, (c) Matra-Datavision
Locations 1
1
-2.22044604925031e-16               1               0               0 
             -1 -2.22044604925031e-16               0               0 
              0               0               1               0 
Curve2ds 17
1 0 1.3200000000000001 1 0 
2 0 0 1 0 -0 1 0.29999999999999999
1 3.1415926535897931 -0 0 1 
1 0.29999999999999999 0 0 1 
1 0 0 1 0 
2 0 0 1 0 -0 1 0.29999999999999999
1 0 -0 0 1 
1 0 0 1 0 
1 0 1.3200000000000001 1 0 
1 0 0 -1 1.2246467991473532e-16 
1 0 1.3200000000000001 1 0 
1 0 0 -1 1.2246467991473532e-16 
1 0 0 1 0 
1 0 0 1 0 
1 0 0 1 0 
1 0 0 0 1 
1 0 0 0 1 
Curves 9
2 0 0 1.3200000000000001 0 0 1 1 0 -0 -0 1 0 0.29999999999999999
1 -0.29999999999999999 3.6739403974420595e-17 0 0 0 1 
2 0 0 0 0 0 1 1 0 -0 -0 1 0 0.29999999999999999
1 0.29999999999999999 0 0 0 0 1 
1 0 0 1.3200000000000001 1 0 -0 
1 0 0 1.3200000000000001 -1 1.2246467991473532e-16 0 
1 0 0 0 -1 1.2246467991473532e-16 0 
1 0 0 0 1 0 -0 
1 0 0 0 0 0 1 
Polygon3D 0
PolygonOnTriangulations 18
16 1 3 4 5 6 7 8 9 10 11 12 13 14 15 16 2 
p 0.0037 1 0 0.20943951023932 0.418879020478639 0.628318530717959 0.837758040957278 1.0471975511966 1.25663706143592 1.46607657167524 1.67551608191456 1.88495559215388 2.0943951023932 2.30383461263252 2.51327412287183 2.72271363311115 2.93215314335047 3.14159265358979 
16 1 3 4 5 6 7 8 9 10 11 12 13 14 15 16 2 
p 0.0037 1 0 0.20943951023932 0.418879020478639 0.628318530717959 0.837758040957278 1.0471975511966 1.25663706143592 1.46607657167524 1.67551608191456 1.88495559215388 2.0943951023932 2.30383461263252 2.51327412287183 2.72271363311115 2.93215314335047 3.14159265358979 
2 17 2 
p 0.0037 1 0 1.32 
2 4 2 
p 0.0037 1 0 1.32 
16 18 19 20 21 22 23 24 25 26 27 28 29 30 31 32 17 
p 0.0037 1 0 0.20943951023932 0.418879020478639 0.628318530717959 0.837758040957278 1.0471975511966 1.25663706143592 1.46607657167524 1.67551608191456 1.88495559215388 2.0943951023932 2.30383461263252 2.51327412287183 2.72271363311115 2.93215314335047 3.14159265358979 
16 1 3 4 5 6 7 8 9 10 11 12 13 14 15 16 2 
p 0.0037 1 0 0.20943951023932 0.418879020478639 0.628318530717959 0.837758040957278 1.0471975511966 1.25663706143592 1.46607657167524 1.67551608191456 1.88495559215388 2.0943951023932 2.30383461263252 2.51327412287183 2.72271363311115 2.93215314335047 3.14159265358979 
2 18 1 
p 0.0037 1 0 1.32 
2 2 4 
p 0.0037 1 0 1.32 
2 17 1 
p 0.0037 1 0 0.3 
2 3 4 
p 0.0037 1 0 0.3 
2 17 2 
p 0.0037 1 0 0.3 
2 1 2 
p 0.0037 1 0 0.3 
2 17 2 
p 0.0037 1 0 0.3 
2 3 4 
p 0.0037 1 0 0.3 
2 17 1 
p 0.0037 1 0 0.3 
2 1 2 
p 0.0037 1 0 0.3 
2 1 3 
p 0.0037 1 0 1.32 
2 3 1 
p 0.0037 1 0 1.32 
Surfaces 5
2 0 0 0 0 0 1 1 0 -0 -0 1 0 0.29999999999999999
1 0 0 1.3200000000000001 0 0 1 1 0 -0 -0 1 0 
1 0 0 0 1.2246467991473532e-16 1 -0 -1 1.2246467991473532e-16 0 0 0 1 
1 0 0 0 0 0 1 1 0 -0 -0 1 0 
1 0 0 0 0 -1 -0 1 0 0 0 -0 1 
Triangulations 5
32 30 1 0.00164343138951804
0.3 0 1.32 -0.3 3.67394039744206e-17 1.32 0.293444280220142 0.0623735072453278 1.32 0.27406363729278 0.12202099292274 1.32 0.242705098312484 0.176335575687742 1.32 0.200739181907657 0.222943447643218 1.32 0.15 0.259807621135332 1.32 0.0927050983124842 0.285316954888546 1.32 0.031358538980296 0.298356568610482 1.32 -0.0313585389802961 0.298356568610482 1.32 -0.0927050983124843 0.285316954888546 1.32 -0.15 0.259807621135332 1.32 -0.200739181907657 0.222943447643218 1.32 -0.242705098312484 0.176335575687742 1.32 -0.27406363729278 0.12202099292274 1.32 -0.293444280220142 0.0623735072453279 1.32 -0.3 3.67394039744206e-17 0 0.3 0 0 0.293444280220142 0.0623735072453278 0 0.27406363729278 0.12202099292274 0 0.242705098312484 0.176335575687742 0 0.200739181907657 0.222943447643218 0 0.15 0.259807621135332 0 0.0927050983124842 0.285316954888546 0 0.031358538980296 0.298356568610482 0 -0.0313585389802961 0.298356568610482 0 -0.0927050983124843 0.285316954888546 0 -0.15 0.259807621135332 0 -0.200739181907657 0.222943447643218 0 -0.242705098312484 0.176335575687742 0 -0.27406363729278 0.12202099292274 0 -0.293444280220142 0.0623735072453279 0 0 1.32 3.14159265358979 1.32 0.20943951023932 1.32 0.418879020478639 1.32 0.628318530717959 1.32 0.837758040957278 1.32 1.0471975511966 1.32 1.25663706143592 1.32 1.46607657167524 1.32 1.67551608191456 1.32 1.88495559215388 1.32 2.0943951023932 1.32 2.30383461263252 1.32 2.51327412287183 1.32 2.72271363311115 1.32 2.93215314335047 1.32 3.14159265358979 0 0 0 0.20943951023932 0 0.418879020478639 0 0.628318530717959 0 0.837758040957278 0 1.0471975511966 0 1.25663706143592 0 1.46607657167524 0 1.67551608191456 0 1.88495559215388 0 2.0943951023932 0 2.30383461263252 0 2.51327412287183 0 2.72271363311115 0 2.93215314335047 0 3 18 19 3 1 18 4 19 20 4 3 19 5 20 21 5 4 20 6 21 22 6 5 21 7 22 23 7 6 22 8 23 24 8 7 23 9 24 25 9 8 24 10 25 26 10 9 25 11 26 27 11 10 26 12 27 28 12 11 27 13 28 29 13 12 28 14 29 30 14 13 29 15 30 31 15 14 30 16 31 32 16 15 31 2 32 17 2 16 32 
17 15 1 1.38777878078145e-17
0.3 0 1.32 -0.3 3.67394039744206e-17 1.32 0.293444280220142 0.0623735072453278 1.32 0.27406363729278 0.12202099292274 1.32 0.242705098312484 0.176335575687742 1.32 0.200739181907657 0.222943447643218 1.32 0.15 0.259807621135332 1.32 0.0927050983124842 0.285316954888546 1.32 0.031358538980296 0.298356568610482 1.32 -0.0313585389802961 0.298356568610482 1.32 -0.0927050983124843 0.285316954888546 1.32 -0.15 0.259807621135332 1.32 -0.200739181907657 0.222943447643218 1.32 -0.242705098312484 0.176335575687742 1.32 -0.27406363729278 0.12202099292274 1.32 -0.293444280220142 0.0623735072453279 1.32 0 0 1.32 0.3 0 -0.3 3.67394039744206e-17 0.293444280220142 0.0623735072453278 0.27406363729278 0.12202099292274 0.242705098312484 0.176335575687742 0.200739181907657 0.222943447643218 0.15 0.259807621135332 0.0927050983124842 0.285316954888546 0.0313585389802961 0.298356568610482 -0.0313585389802961 0.298356568610482 -0.0927050983124842 0.285316954888546 -0.15 0.259807621135332 -0.200739181907657 0.222943447643218 -0.242705098312484 0.176335575687742 -0.27406363729278 0.12202099292274 -0.293444280220142 0.0623735072453279 0 0 17 14 15 17 15 16 17 16 2 13 14 17 12 13 17 11 12 17 10 11 17 9 10 17 3 17 1 8 9 17 4 17 3 7 8 17 5 17 4 6 7 17 6 17 5 
4 2 1 0
0 0 1.32 -0.3 3.67394039744206e-17 1.32 0 0 0 -0.3 3.67394039744206e-17 0 0 1.32 0.3 1.32 0 0 0.3 0 2 1 3 2 3 4 
17 15 1 1.38777878078145e-17
0.3 0 0 -0.3 3.67394039744206e-17 0 0.293444280220142 0.0623735072453278 0 0.27406363729278 0.12202099292274 0 0.242705098312484 0.176335575687742 0 0.200739181907657 0.222943447643218 0 0.15 0.259807621135332 0 0.0927050983124842 0.285316954888546 0 0.031358538980296 0.298356568610482 0 -0.0313585389802961 0.298356568610482 0 -0.0927050983124843 0.285316954888546 0 -0.15 0.259807621135332 0 -0.200739181907657 0.222943447643218 0 -0.242705098312484 0.176335575687742 0 -0.27406363729278 0.12202099292274 0 -0.293444280220142 0.0623735072453279 0 0 0 0 0.3 0 -0.3 3.67394039744206e-17 0.293444280220142 0.0623735072453278 0.27406363729278 0.12202099292274 0.242705098312484 0.176335575687742 0.200739181907657 0.222943447643218 0.15 0.259807621135332 0.0927050983124842 0.285316954888546 0.0313585389802961 0.298356568610482 -0.0313585389802961 0.298356568610482 -0.0927050983124842 0.285316954888546 -0.15 0.259807621135332 -0.200739181907657 0.222943447643218 -0.242705098312484 0.176335575687742 -0.27406363729278 0.12202099292274 -0.293444280220142 0.0623735072453279 0 0 17 14 15 17 15 16 17 16 2 13 14 17 12 13 17 11 12 17 10 11 17 9 10 17 3 17 1 8 9 17 4 17 3 7 8 17 5 17 4 6 7 17 6 17 5 
4 2 1 0
0 0 0 0.3 0 0 0 0 1.32 0.3 0 1.32 0 0 0.3 0 0 1.32 0.3 1.32 4 1 2 4 3 1 

TShapes 28
Ve
1e-07
-0.3 3.67394039744206e-17 1.32
0 0

0101101
*
Ve
1e-07
0.3 0 1.32
0 0

0101101
*
Ed
 1e-07 1 1 0
1  1 0 0 3.14159265358979
2  1 1 0 0 3.14159265358979
2  2 2 0 0 3.14159265358979
6  1 1 0
6  2 2 0
0

0101000
-28 0 +27 0 *
Ve
1e-07
-0.3 3.67394039744206e-17 0
0 0

0101101
*
Ed
 1e-07 1 1 0
1  2 0 0 1.32
2  3 1 0 0 1.32
2  4 3 0 0 1.32
6  3 1 0
6  4 3 0
0

0101000
-28 0 +25 0 *
Ve
1e-07
0.3 0 0
0 0

0101101
*
Ed
 1e-07 1 1 0
1  3 0 0 3.14159265358979
2  5 1 0 0 3.14159265358979
2  6 4 0 0 3.14159265358979
6  5 1 0
6  6 4 0
0

0101000
-25 0 +23 0 *
Ed
 1e-07 1 1 0
1  4 0 0 1.32
2  7 1 0 0 1.32
2  4 5 0 0 1.32
6  7 1 0
6  8 5 0
0

0101000
-27 0 +23 0 *
Wi

0101100
-26 0 +24 0 +22 0 -21 0 *
Fa
0  1e-07 1 0
2  1
0101000
+20 0 *
Ve
1e-07
0 0 1.32
0 0

0101101
*
Ed
 1e-07 1 1 0
1  5 0 0 0.3
2  8 2 0 0 0.3
2  9 5 0 0 0.3
6  9 2 0
6  10 5 0
0

0101000
+18 0 -27 0 *
Ed
 1e-07 1 1 0
1  6 0 0 0.3
2  10 2 0 0 0.3
2  11 3 0 0 0.3
6  11 2 0
6  12 3 0
0

0101000
+18 0 -28 0 *
Wi

0101100
+26 0 +17 0 -16 0 *
Fa
0  1e-07 2 0
2  2
0101000
+15 0 *
Ve
1e-07
0 0 0
0 0

0101101
*
Ed
 1e-07 1 1 0
1  7 0 0 0.3
2  12 4 0 0 0.3
2  13 3 0 0 0.3
6  13 4 0
6  14 3 0
0

0101000
+13 0 -25 0 *
Ed
 1e-07 1 1 0
1  8 0 0 0.3
2  14 4 0 0 0.3
2  15 5 0 0 0.3
6  15 4 0
6  16 5 0
0

0101000
-23 0 +13 0 *
Wi

0101100
-22 0 +12 0 -11 0 *
Fa
0  1e-07 4 0
2  4
0101000
-10 0 *
Ed
 1e-07 1 1 0
1  9 0 0 1.32
2  16 5 0 0 1.32
2  17 3 0 0 1.32
6  17 5 0
6  18 3 0
0

0101000
-18 0 +13 0 *
Wi

0101100
+11 0 -8 0 -17 0 +21 0 *
Fa
0  1e-07 5 0
2  5
0101000
+7 0 *
Wi

0101100
+16 0 +8 0 -12 0 -24 0 *
Fa
0  1e-07 3 0
2  3
0101000
-5 0 *
Sh

0101100
+19 0 +14 0 -9 0 +6 0 -4 0 *
So

0100000
+3 0 *
Co

1100000
+2 1 *

+1 0 