DBRep_DrawableShape

CASCADE Topology V3, (c) Open Cascade
Locations 1
1
              1               0               0               0 
              0               1               0               0 
              0               0               1             2.1 
Curve2ds 0
Curves 24
1 1.0900000000000001 0.02 0 0 0 1 
1 0 0.38 0 0 0 1 
1 1.0900000000000001 0.02 0 -0.94955084583900695 0.31361312339636926 0 
1 -1.0900000000000001 0.02 0 0 0 1 
1 -1.0900000000000001 0.02 0 0.94955084583900695 0.31361312339636926 0 
1 -1.4099999999999999 -0.11 0 0 0 1 
1 -1.4099999999999999 -0.11 0 0.92646657712230907 0.37637704695593827 0 
1 -1.75 0.82999999999999996 0 0 0 1 
1 -1.75 0.82999999999999996 0 0.34013608165443815 -0.94037622575050528 0 
1 -1.6599999999999999 3.4500000000000002 0 0 0 1 
1 -1.6599999999999999 3.4500000000000002 0 -0.034330895761444907 -0.9994105210553953 0 
1 -0.69999999999999996 3.9900000000000002 0 0 0 1 
1 -0.69999999999999996 3.9900000000000002 0 -0.87157553712454927 -0.49026123963255902 0 
1 0 3.7799999999999998 0 0 0 1 
1 -0 3.7799999999999998 0 -0.95782628522115121 0.28734788556634594 0 
1 0.69999999999999996 3.9900000000000002 0 0 0 1 
1 0 3.7799999999999998 0 0.95782628522115121 0.28734788556634594 0 
1 1.6599999999999999 3.4500000000000002 0 0 0 1 
1 0.69999999999999996 3.9900000000000002 0 0.87157553712454927 -0.49026123963255902 0 
1 1.75 0.82999999999999996 0 0 0 1 
1 1.6599999999999999 3.4500000000000002 0 0.034330895761444907 -0.9994105210553953 0 
1 1.4099999999999999 -0.11 0 0 0 1 
1 1.75 0.82999999999999996 0 -0.34013608165443815 -0.94037622575050528 0 
1 1.4099999999999999 -0.11 0 -0.92646657712230907 0.37637704695593827 0 
Polygon3D 0
PolygonOnTriangulations 0
Surfaces 13
1 1.0900000000000001 0.02 0 -0.31361312339636932 -0.94955084583900706 0 -0.94955084583900706 0.31361312339636932 0 -0 0 -1 
1 -1.0900000000000001 0.02 0 -0.31361312339636932 0.94955084583900706 0 0.94955084583900706 0.31361312339636932 0 0 0 -1 
1 -1.4099999999999999 -0.11 0 -0.37637704695593827 0.92646657712230907 0 0.92646657712230907 0.37637704695593827 0 0 0 -1 
1 -1.75 0.82999999999999996 0 0.94037622575050539 0.3401360816544382 -0 0.3401360816544382 -0.94037622575050539 0 0 -0 -1 
1 -1.6599999999999999 3.4500000000000002 0 0.99941052105539541 -0.034330895761444914 0 -0.034330895761444914 -0.99941052105539541 0 0 -0 -1 
1 -0.69999999999999996 3.9900000000000002 0 0.49026123963255902 -0.87157553712454927 0 -0.87157553712454927 -0.49026123963255902 0 0 -0 -1 
1 -0 3.7799999999999998 0 -0.287347885566346 -0.95782628522115132 0 -0.95782628522115132 0.287347885566346 0 -0 0 -1 
1 0 3.7799999999999998 0 -0.287347885566346 0.95782628522115132 0 0.95782628522115132 0.287347885566346 0 0 0 -1 
1 0.69999999999999996 3.9900000000000002 0 0.49026123963255902 0.87157553712454927 -0 0.87157553712454927 -0.49026123963255902 0 0 -0 -1 
1 1.6599999999999999 3.4500000000000002 0 0.99941052105539541 0.034330895761444914 -0 0.034330895761444914 -0.99941052105539541 0 0 -0 -1 
1 1.75 0.82999999999999996 0 0.94037622575050539 -0.3401360816544382 0 -0.3401360816544382 -0.94037622575050539 0 0 -0 -1 
1 1.4099999999999999 -0.11 0 -0.37637704695593827 -0.92646657712230907 0 -0.92646657712230907 0.37637704695593827 0 -0 0 -1 
1 9.1896224549673034e-17 1.8887521805362741 0 -0 -0 -1 -1 0 0 0 1 -0 
Triangulations 0

TShapes 69
Ve
1e-07
1.09 0.02 0
0 0

0101101
*
Ed
 1e-07 1 1 0
1  1 0 0 2.1
0

0101000
+69 0 -69 1 *
Ve
1e-07
0 0.38 0
0 0

0101101
*
Ed
 1e-07 1 1 0
1  2 0 0 2.1
0

0101000
+67 0 -67 1 *
Ed
 1e-07 1 1 0
1  3 0 0 1.14791114638721
0

0101000
+69 0 -67 0 *
Wi

0101100
+68 0 -66 0 -65 0 +65 1 *
Fa
0  1e-07 1 0

0101000
+64 0 *
Ve
1e-07
-1.09 0.02 0
0 0

0101101
*
Ed
 1e-07 1 1 0
1  4 0 0 2.1
0

0101000
+62 0 -62 1 *
Ed
 1e-07 1 1 0
1  5 0 0 1.14791114638721
0

0101000
+62 0 -67 0 *
Wi

0101100
+61 0 -66 0 -60 0 +60 1 *
Fa
0  1e-07 2 0

0101000
+59 0 *
Ve
1e-07
-1.41 -0.11 0
0 0

0101101
*
Ed
 1e-07 1 1 0
1  6 0 0 2.1
0

0101000
+57 0 -57 1 *
Ed
 1e-07 1 1 0
1  7 0 0 0.345398320783411
0

0101000
+57 0 -62 0 *
Wi

0101100
+56 0 -61 0 -55 0 +55 1 *
Fa
0  1e-07 3 0

0101000
+54 0 *
Ve
1e-07
-1.75 0.83 0
0 0

0101101
*
Ed
 1e-07 1 1 0
1  8 0 0 2.1
0

0101000
+52 0 -52 1 *
Ed
 1e-07 1 1 0
1  9 0 0 0.999599919967984
0

0101000
+52 0 -57 0 *
Wi

0101100
+51 0 -56 0 -50 0 +50 1 *
Fa
0  1e-07 4 0

0101000
+49 0 *
Ve
1e-07
-1.66 3.45 0
0 0

0101101
*
Ed
 1e-07 1 1 0
1  10 0 0 2.1
0

0101000
+47 0 -47 1 *
Ed
 1e-07 1 1 0
1  11 0 0 2.62154534578367
0

0101000
+47 0 -52 0 *
Wi

0101100
+46 0 -51 0 -45 0 +45 1 *
Fa
0  1e-07 5 0

0101000
+44 0 *
Ve
1e-07
-0.7 3.99 0
0 0

0101101
*
Ed
 1e-07 1 1 0
1  12 0 0 2.1
0

0101000
+42 0 -42 1 *
Ed
 1e-07 1 1 0
1  13 0 0 1.10145358504115
0

0101000
+42 0 -47 0 *
Wi

0101100
+41 0 -46 0 -40 0 +40 1 *
Fa
0  1e-07 6 0

0101000
+39 0 *
Ve
1e-07
0 3.78 0
0 0

0101101
*
Ed
 1e-07 1 1 0
1  14 0 0 2.1
0

0101000
+37 0 -37 1 *
Ed
 1e-07 1 1 0
1  15 0 0 0.730821455623739
0

0101000
+37 0 -42 0 *
Wi

0101100
+36 0 -41 0 -35 0 +35 1 *
Fa
0  1e-07 7 0

0101000
+34 0 *
Ve
1e-07
0.7 3.99 0
0 0

0101101
*
Ed
 1e-07 1 1 0
1  16 0 0 2.1
0

0101000
+32 0 -32 1 *
Ed
 1e-07 1 1 0
1  17 0 0 0.730821455623739
0

0101000
+37 0 -32 0 *
Wi

0101100
+36 0 -31 0 -30 0 +30 1 *
Fa
0  1e-07 8 0

0101000
+29 0 *
Ve
1e-07
1.66 3.45 0
0 0

0101101
*
Ed
 1e-07 1 1 0
1  18 0 0 2.1
0

0101000
+27 0 -27 1 *
Ed
 1e-07 1 1 0
1  19 0 0 1.10145358504115
0

0101000
+32 0 -27 0 *
Wi

0101100
+31 0 -26 0 -25 0 +25 1 *
Fa
0  1e-07 9 0

0101000
+24 0 *
Ve
1e-07
1.75 0.83 0
0 0

0101101
*
Ed
 1e-07 1 1 0
1  20 0 0 2.1
0

0101000
+22 0 -22 1 *
Ed
 1e-07 1 1 0
1  21 0 0 2.62154534578367
0

0101000
+27 0 -22 0 *
Wi

0101100
+26 0 -21 0 -20 0 +20 1 *
Fa
0  1e-07 10 0

0101000
+19 0 *
Ve
1e-07
1.41 -0.11 0
0 0

0101101
*
Ed
 1e-07 1 1 0
1  22 0 0 2.1
0

0101000
+17 0 -17 1 *
Ed
 1e-07 1 1 0
1  23 0 0 0.999599919967984
0

0101000
+22 0 -17 0 *
Wi

0101100
+21 0 -16 0 -15 0 +15 1 *
Fa
0  1e-07 11 0

0101000
+14 0 *
Ed
 1e-07 1 1 0
1  24 0 0 0.345398320783411
0

0101000
+17 0 -69 0 *
Wi

0101100
+16 0 -68 0 -12 0 +12 1 *
Fa
0  1e-07 12 0

0101000
+11 0 *
Wi

0101100
+65 0 -60 0 -55 0 -50 0 -45 0 -40 0 -35 0 +30 0 +25 0 +20 0 
+15 0 +12 0 *
Fa
0  1e-07 13 0

0111000
+9 0 *
Sh

0101100
+63 0 -58 0 -53 0 -48 0 -43 0 -38 0 -33 0 +28 0 +23 0 +18 0 
+13 0 +10 0 +8 0 -8 1 *
So

0100000
+7 0 *
Ve
1e-07
-0 0.38 0
0 0

0101101
*
Ed
 1e-07 1 1 0
1  5 0 0 1.14791114638721
0

0101000
+62 0 -5 0 *
Ve
1e-07
-0 3.78 0
0 0

0101101
*
Ed
 1e-07 1 1 0
1  15 0 0 0.730821455623739
0

0101000
+3 0 -42 0 *
Co

1100000
+6 0 +4 0 +2 0 *

+1 0 