DBRep_DrawableShape

CASCADE Topology V3, (c) Open Cascade
Locations 3
1
              1               0               0               0 
              0               1               0               0 
              0               0               1            3.13 
2  1 -1 0
1
              1               0               0               0 
              0  0.999982000054 0.0059999640000648 -0.0187798873202028 
              0 -0.0059999640000648  0.999982000054 5.63398309800789e-05 
Curve2ds 48
1 0 -0 1 0 
1 0 -3.1299999999999999 1 0 
1 2.77 0 0 -1 
1 2.77 0 0 -1 
8 -4.1550000000000002 -1.3850000000000002
1 4.1550000000000002 -2.8169943659154888 1 0 
8 -4.1550000000000002 -1.3850000000000002
1 4.1550000000000002 11.741878022536325 -1 0 
1 0 -0 0 -1 
1 3.0034147232774897 0 0 -1 
1 0 0 1 0 
1 0 -3.1299999999999999 1 0 
1 0 0 1 0 
1 0 -3.1299999999999999 1 0 
1 0 0 1 0 
1 0 -3.1299999999999999 1 0 
1 0 -0 1 0 
1 0 -3.1299999999999999 1 0 
1 0 0 1 0 
1 0 -3.1299999999999999 1 0 
1 0 0 1 0 
1 0 -3.1299999999999999 1 0 
1 0 0 1 0 
1 0 -3.1299999999999999 1 0 
8 1.3850000000000002 4.1550000000000002
1 -1.3850000000000002 -2.8169943659154888 1 0 
8 1.3850000000000002 4.1550000000000002
1 1.3849999999999998 11.741878022536325 1 0 
1 0 0 0 -1 
1 3.0034147232774897 0 0 -1 
8 -7.5253247451255429 -4.5218585702173737
1 7.5251958306623941 -2.8434621944109684 0.99998286924916668 -0.0058533074585317693 
8 -7.5253247451255429 -4.5218585702173737
1 1.7763391819504291 7.3305468053501377 -0.21974610718570184 -0.9755570964206709 
8 -8.3737717550954631 -5.3808616032418826
1 8.3736263046280381 -2.8311289518900029 0.99998263023262657 -0.0058939997487472955 
8 -8.3737717550954631 -5.3808616032418826
1 4.4368068685420639 9.3860995588053573 0.18710885779620839 -0.98233918548238641 
8 -2.77 -0.10000000000000009
1 2.77 -2.7817739432694033 1 0 
8 -2.77 -0.10000000000000009
1 2.77 17.611983684121249 -1 0 
8 2.77 5.4399999999999995
1 -2.77 -2.7817739432694033 1 0 
8 2.77 5.4399999999999995
1 2.77 17.611983684121249 1 0 
8 -9.4103548272864561 -6.4174446754328756
1 9.4101913716122034 -2.8372385722570526 0.99998263023262657 -0.0058939997487472955 
8 -9.4103548272864561 -6.4174446754328756
1 6.4492392568093955 8.3678233879844264 -0.18710885779620839 -0.98233918548238641 
8 -6.3079313113167554 -3.3044651364085862
1 6.3078232517171866 -2.8363364163448876 0.99998286924916668 -0.0058533074585317693 
8 -6.3079313113167554 -3.3044651364085862
1 9.0361433500566566 8.5181836088382283 0.21974610718570184 -0.9755570964206709 
1 2.9928581657004729 0 0 -1 
1 0 0 0 -1 
1 0 0 0 -1 
1 2.9928581657004729 0 0 -1 
1 0 0 0 -1 
1 2.6699999999999999 0 0 -1 
1 0 -0 0 -1 
1 0 0 0 -1 
1 2.6699999999999999 0 0 -1 
1 0 0 0 -1 
Curves 24
1 2.77 0 0 -1 0 0 
1 0 0 0 0 0 1 
1 -1.385 0 2.8169943659154888 -1 0 0 
1 2.77 0 0 0 0 1 
1 -2.77 0 0 1 0 0 
1 -2.1099999999999999 2.9300000000000002 0 -0.21974987166599894 -0.97555624845663147 0 
1 -2.6699999999999999 5.8700000000000001 0 0.18711210788999522 -0.98233856642247475 0 
1 -0 5.8700000000000001 0 -1 0 0 
1 0 5.8700000000000001 0 1 0 0 
1 2.6699999999999999 5.8700000000000001 0 -0.18711210788999522 -0.98233856642247475 0 
1 2.1099999999999999 2.9300000000000002 0 0.21974987166599894 -0.97555624845663147 0 
1 -4.1550000000000002 0 2.8169943659154888 1 0 0 
1 -2.77 0 0 0 0 1 
1 -3.763660818049571 -4.4112518134624903 2.8434621944109684 -0.21974610718570178 -0.9755395364456152 0.0058533074585317693 
1 -1.1031931314579362 -2.3557360598458308 2.8311289518900029 0.18710885779620839 -0.98232150343009395 0.0058939997487472955 
1 -2.77 5.870000000000001 2.7817739432694033 -1 0 0 
1 -2.77 5.870000000000001 2.7817739432694033 1 0 0 
1 0.90923925680939544 -3.3739939017506746 2.8372385722570526 -0.18710885779620839 -0.98232150343009395 0.0058939997487472955 
1 3.4961433500566566 -3.2236363873727285 2.8363364163448876 0.21974610718570178 -0.9755395364456152 0.0058533074585317693 
1 2.1099999999999999 2.9300000000000002 0 0 0 1 
1 -2.1099999999999999 2.9300000000000002 0 0 0 1 
1 -2.6699999999999999 5.8700000000000001 0 0 0 1 
1 0 5.8700000000000001 0 0 0 1 
1 2.6699999999999999 5.8700000000000001 0 0 0 1 
Polygon3D 0
PolygonOnTriangulations 0
Surfaces 10
1 2.77 0 0 0 -1 0 -1 0 0 -0 -0 -1 
1 -2.77 0 0 0 1 0 1 0 0 0 0 -1 
1 -5.54 -11.74 2.8170000000000002 0 0 1 1 0 -0 -0 1 0 
1 2.1099999999999999 2.9300000000000002 0 0.97555624845663158 0.21974987166599896 -0 0.21974987166599896 -0.97555624845663158 0 0 -0 -1 
1 3.8831638083598572e-17 2.9066706278687202 0 -0 -0 -1 -1 0 0 0 1 -0 
1 -2.1099999999999999 2.9300000000000002 0 0.97555624845663158 -0.21974987166599896 0 -0.21974987166599896 -0.97555624845663158 0 0 -0 -1 
1 -2.6699999999999999 5.8700000000000001 0 0.98233856642247475 0.18711210788999522 -0 0.18711210788999522 -0.98233856642247475 0 0 -0 -1 
1 -0 5.8700000000000001 0 0 -1 0 -1 0 0 -0 -0 -1 
1 0 5.8700000000000001 0 0 1 0 1 0 0 0 0 -1 
1 2.6699999999999999 5.8700000000000001 0 0.98233856642247475 -0.18711210788999522 0 -0.18711210788999522 -0.98233856642247475 0 0 -0 -1 
Triangulations 0

TShapes 67
Ve
1e-07
2.77 0 0
0 0

0101101
*
Ve
1e-07
0 0 0
0 0

0101101
*
Ed
 1e-07 1 1 0
1  1 0 0 2.77
2  1 1 0 0 2.77
2  2 1 2 0 2.77
0

0101000
+67 0 -66 0 *
Ve
1.50000000222045e-07
0 0 2.81699436591549
0 0

0101101
*
Ed
 1e-07 1 1 0
1  2 0 0 2.81699436591549
4 C2 1 0 2 0
2  3 1 0 0 2.81699436591549
2  4 2 0 0 2.81699436591549
0

0101000
+66 0 -64 0 *
Ve
1.50000000769185e-07
2.77 0 2.81699436591549
0 0

0101101
*
Ed
 1.5e-07 1 1 0
1  3 0 -4.155 -1.385
2  5 1 0 -4.155 -1.385
2  6 3 3 -4.155 -1.385
0

0101000
+62 0 -64 0 *
Ed
 1e-07 1 1 0
1  4 0 0 2.81699436591549
2  7 1 0 0 2.81699436591549
2  8 4 0 0 2.81699436591549
0

0101000
+67 0 -62 0 *
Wi

0101100
-65 0 -63 0 +61 0 +60 0 *
Fa
0  1e-07 1 0

0101000
+59 0 *
Ve
1e-07
-2.77 0 0
0 0

0101101
*
Ed
 1e-07 1 1 0
1  5 0 0 2.77
2  9 2 0 0 2.77
2  10 2 2 0 2.77
0

0101000
+57 0 -66 0 *
Ve
1e-07
-2.11 2.93 0
0 0

0101101
*
Ed
 1e-07 1 1 0
1  6 0 0 3.00341472327749
2  11 6 0 0 3.00341472327749
2  12 6 2 0 3.00341472327749
0

0101000
+55 0 -57 0 *
Ve
1e-07
-2.67 5.87 0
0 0

0101101
*
Ed
 1e-07 1 1 0
1  7 0 0 2.99285816570047
2  13 7 0 0 2.99285816570047
2  14 7 2 0 2.99285816570047
0

0101000
+53 0 -55 0 *
Ve
1e-07
0 5.87 0
0 0

0101101
*
Ed
 1e-07 1 1 0
1  8 0 0 2.67
2  15 8 0 0 2.67
2  16 8 2 0 2.67
0

0101000
+51 0 -53 0 *
Ve
1e-07
2.67 5.87 0
0 0

0101101
*
Ed
 1e-07 1 1 0
1  9 0 0 2.67
2  17 9 0 0 2.67
2  18 9 2 0 2.67
0

0101000
+51 0 -49 0 *
Ve
1e-07
2.11 2.93 0
0 0

0101101
*
Ed
 1e-07 1 1 0
1  10 0 0 2.99285816570047
2  19 10 0 0 2.99285816570047
2  20 10 2 0 2.99285816570047
0

0101000
+49 0 -47 0 *
Ed
 1e-07 1 1 0
1  11 0 0 3.00341472327749
2  21 4 0 0 3.00341472327749
2  22 4 2 0 3.00341472327749
0

0101000
+47 0 -67 0 *
Wi

0101100
+65 0 -56 0 -54 0 -52 0 -50 0 +48 0 +46 0 +45 0 *
Fa
0  1e-07 5 0

0111000
+44 0 *
Ve
1.50000001087792e-07
-2.77 0 2.81699436591549
0 0

0101101
*
Ed
 1.5e-07 1 1 0
1  12 0 1.385 4.155
2  23 2 0 1.385 4.155
2  24 3 3 1.385 4.155
0

0101000
+42 0 -64 0 *
Ed
 1e-07 1 1 0
1  13 0 0 2.81699436591549
2  25 2 0 0 2.81699436591549
2  26 6 0 0 2.81699436591549
0

0101000
+57 0 -42 0 *
Wi

0101100
-56 0 -63 0 +41 0 +40 0 *
Fa
0  1e-07 2 0

0101000
+39 0 *
Ve
1.50000001472877e-07
-2.11 2.93 2.79941415495245
0 0

0101101
*
Ed
 1.5e-07 1 1 0
1  14 0 -7.52532474512554 -4.52185857021737
2  27 6 0 -7.52532474512554 -4.52185857021737
2  28 3 3 -7.52532474512554 -4.52185857021737
0

0101000
+37 0 -42 0 *
Ve
1.50000000993014e-07
-2.67 5.87 2.7817739432694
0 0

0101101
*
Ed
 1.5e-07 1 1 0
1  15 0 -8.37377175509546 -5.38086160324188
2  29 7 0 -8.37377175509546 -5.38086160324188
2  30 3 3 -8.37377175509546 -5.38086160324188
0

0101000
+35 0 -37 0 *
Ve
1.50000000993014e-07
0 5.87 2.7817739432694
0 0

0101101
*
Ed
 1.5e-07 1 1 0
1  16 0 -2.77 -0.1
2  31 8 0 -2.77 -0.1
2  32 3 3 -2.77 -0.1
0

0101000
+33 0 -35 0 *
Ve
1.50000001087792e-07
2.67 5.87 2.7817739432694
0 0

0101101
*
Ed
 1.5e-07 1 1 0
1  17 0 2.77 5.44
2  33 9 0 2.77 5.44
2  34 3 3 2.77 5.44
0

0101000
+33 0 -31 0 *
Ve
1.50000001472877e-07
2.11 2.93 2.79941415495245
0 0

0101101
*
Ed
 1.5e-07 1 1 0
1  18 0 -9.41035482728646 -6.41744467543288
2  35 10 0 -9.41035482728646 -6.41744467543288
2  36 3 3 -9.41035482728646 -6.41744467543288
0

0101000
+31 0 -29 0 *
Ed
 1.5e-07 1 1 0
1  19 0 -6.30793131131676 -3.30446513640859
2  37 4 0 -6.30793131131676 -3.30446513640859
2  38 3 3 -6.30793131131676 -3.30446513640859
0

0101000
+29 0 -62 0 *
Wi

0101100
-61 0 +41 0 +36 0 +34 0 +32 0 -30 0 -28 0 -27 0 *
Fa
0  1e-07 3 3

0101000
+26 0 *
Ed
 1e-07 1 1 0
1  20 0 0 2.79941415495245
2  39 10 0 0 2.79941415495245
2  40 4 0 0 2.79941415495245
0

0101000
+47 0 -29 0 *
Wi

0101100
-45 0 -60 0 +27 0 +24 0 *
Fa
0  1e-07 4 0

0101000
+23 0 *
Ed
 1e-07 1 1 0
1  21 0 0 2.79941415495245
2  41 6 0 0 2.79941415495245
2  42 7 0 0 2.79941415495245
0

0101000
+55 0 -37 0 *
Wi

0101100
-54 0 -40 0 +36 0 +21 0 *
Fa
0  1e-07 6 0

0101000
+20 0 *
Ed
 1e-07 1 1 0
1  22 0 0 2.7817739432694
2  43 7 0 0 2.7817739432694
2  44 8 0 0 2.7817739432694
0

0101000
+53 0 -35 0 *
Wi

0101100
-52 0 -21 0 +34 0 +18 0 *
Fa
0  1e-07 7 0

0101000
+17 0 *
Ed
 1e-07 1 1 0
1  23 0 0 2.7817739432694
4 C2 8 0 9 0
2  45 8 0 0 2.7817739432694
2  46 9 0 0 2.7817739432694
0

0101000
+51 0 -33 0 *
Wi

0101100
-50 0 -18 0 +32 0 +15 0 *
Fa
0  1e-07 8 0

0101000
+14 0 *
Ed
 1e-07 1 1 0
1  24 0 0 2.7817739432694
2  47 9 0 0 2.7817739432694
2  48 10 0 0 2.7817739432694
0

0101000
+49 0 -31 0 *
Wi

0101100
-48 0 -12 0 +30 0 +15 0 *
Fa
0  1e-07 9 0

0101000
+11 0 *
Wi

0101100
-46 0 -24 0 +28 0 +12 0 *
Fa
0  1e-07 10 0

0101000
+9 0 *
Sh

0101100
+58 0 +43 0 -38 0 +25 0 +22 0 -19 0 -16 0 -13 0 +10 0 +8 0 
*
So

0100000
+7 0 *
Ve
1e-07
-0 0 0
0 0

0101101
*
Ed
 1e-07 1 1 0
1  5 0 0 2.77
0

0101000
+57 0 -5 0 *
Ve
1e-07
-0 5.87 0
0 0

0101101
*
Ed
 1e-07 1 1 0
1  8 0 0 2.67
0

0101000
+3 0 -53 0 *
Co

1100000
+6 0 +4 0 +2 0 *

+1 0 