DBRep_DrawableShape

CASCADE Topology V1, (c) Matra-Datavision
Locations 42
1
              1               0               0               0 
              0               1               0               0 
              0               0               1               0 
1
              1               0               0               0 
              0               1               0               0 
              0               0               1               0 
1
              1               0               0               0 
              0               1               0               0 
              0               0               1               0 
1
              1               0               0               0 
              0               1               0               0 
              0               0               1               0 
2  2 1 3 1 4 1 0
2  3 -1 2 -1 0
2  4 -1 3 -1 2 -1 0
2  2 -1 0
2  3 1 4 1 0
2  3 -1 0
2  4 -1 3 -1 0
1
              1               0               0               0 
              0               1               0               0 
              0               0               1               0 
1
              1               0               0               0 
              0               1               0               0 
              0               0               1               0 
1
              1               0               0               0 
              0               1               0               0 
              0               0               1               3 
2  12 1 13 -1 14 1 2 1 3 1 4 1 0
2  14 -1 13 1 12 -1 0
2  12 -1 0
2  3 -1 2 -1 14 -1 13 1 12 -1 0
2  4 -1 3 -1 2 -1 14 -1 13 1 12 -1 0
2  2 -1 14 -1 13 1 12 -1 0
2  13 -1 14 1 0
1
              1               0               0            -2.5 
              0               1               0               0 
              0               0               1               0 
2  12 1 13 -1 2 1 3 1 4 1 0
2  13 1 12 -1 0
2  4 -1 3 -1 2 -1 13 1 12 -1 0
2  3 -1 2 -1 13 1 12 -1 0
2  2 1 3 1 0
1
              1               0               0            -1.5 
              0               1               0             2.7 
              0               0               1               0 
2  4 -1 0
2  13 -1 14 1 2 1 0
2  13 -1 14 1 2 1 3 1 4 1 0
2  2 -1 14 -1 13 1 0
2  12 1 13 -1 14 1 2 1 0
2  22 1 4 -1 3 -1 2 -1 13 1 12 -1 0
2  2 1 3 1 4 1 22 -1 0
2  22 -1 0
2  13 -1 2 1 3 1 4 1 22 -1 0
2  13 -1 2 1 3 1 4 1 0
2  28 1 4 1 0
2  13 -1 2 1 3 1 28 -1 0
2  28 -1 0
2  4 -1 28 -1 0
Curve2ds 76
1 3.0517635622701835 0 0 -1 
1 0 -0 0 -1 
1 1.490018137049067 -0.072237393128358904 0.14038584553084091 0.99009687120735368 
1 2.5939067779538716 -2.4489204494636989 -0.71404068008251786 -0.70010421166230352 
1 0 -3 1 0 
1 0 0 0 -1 
1 2 0 0 -1 
8 -0.47296435485510663 -0.10579809510734028
1 0.44236716654279268 -0.80000000000000004 1 0 
8 -0.47296435485510663 -0.10579809510734028
1 4.4130272399843999 0.43373315419779446 -0.19660762957457451 0.98048224868840284 
8 -0.88000000000000012 0.080000000000000016
1 0.3059718831231385 0 0 1 
8 -0.88000000000000012 0.080000000000000016
1 0 4.4398435933426912 -1 0 
1 0 0 1 0 
1 2 -1.3569659490794885 -0.19660762957457451 0.98048224868840284 
8 -0.65999999999999992 0.059999999999999998
1 2.7537469481082466 0 0 1 
8 -0.65999999999999992 0.059999999999999998
1 0 2.9585923400842189 -1 0 
8 1.0554353723110836 1.4226016320588497
1 1.6677143874848492 -0.59999999999999998 1 0 
8 1.0554353723110836 1.4226016320588497
1 3.1721146274691909 -1.0648356471888529 -0.19660762957457451 0.98048224868840284 
8 -1.5899999999999999 0.089999999999999858
1 1.45 -0.59999999999999998 1 0 
8 -1.5899999999999999 0.089999999999999858
1 1.45 0.29219999999999979 -1 0 
1 1.3999999999999999 0 0 -1 
1 1.3999999999999999 0 0 -1 
1 0 -0.70710678118654724 1 0 
1 1.3999999999999999 -2 -1 0 
8 -0.70710678118654724 0.70710678118654791
1 1.3999999999999999 0 0 1 
8 -0.70710678118654724 0.70710678118654791
1 0 0 0 1 
1 0 0.70710678118654791 1 0 
1 -1.0324833021945108e-16 0.63523405092051144 1 0 
1 -1.0324833021945108e-16 -1.3569659490794885 1 0 
1 0 0 1 0 
1 0 -3 1 0 
1 0 2.5 0 1 
1 2.5 0 1 0 
1 0 0.70710678118654791 1 0 
1 -1.3999999999999999 0.63523405092051144 1 0 
1 -1.0324833021945108e-16 -1.3569659490794885 -1 0 
1 0 -0 1 0 
1 0 -3 1 0 
1 0 2.5 0 -1 
1 2.5 0 -1 0 
1 0 -3 1 0 
1 0.80000000000000004 0 0 1 
1 0 0 1 0 
1 -2.5 -0.80000000000000004 1 0 
1 0 0 0 -1 
1 0 -0 0 -1 
1 0.80000000000000004 0 0 1 
1 0 0.29999999999999999 1 0 
1 2.5 -0.80000000000000004 -1 -0 
8 0.018554719081329763 0.38572097882909601
1 -0.049151907393643599 -0.80000000000000004 1 0 
8 0.018554719081329763 0.38572097882909601
1 0.49033635999826686 -0.048192572688643825 0.19660762957457451 0.98048224868840284 
1 0 0 0 1 
1 0 0.29999999999999999 1 0 
1 -2.5 -1.0569659490794885 1 0 
8 -0.88000000000000012 0.080000000000000016
1 0.30597188312313861 0 0 1 
8 -0.88000000000000012 0.080000000000000016
1 0 0.56015640665730926 -1 0 
1 -2 -1.3569659490794885 0.19660762957457451 0.98048224868840284 
1 0 0 1 0 
1 0 0 0 1 
1 0 0 1 0 
1 -1.5 1.3430340509205116 1 0 
1 0.59999999999999998 0 0 1 
1 0 0 1 0 
8 -0.65999999999999992 0.059999999999999998
1 2.7537469481082466 0 0 1 
8 -0.65999999999999992 0.059999999999999998
1 0 0.041407659915781325 -1 0 
8 1.3503468166729455 1.7175130764207116
1 1.3728029431229873 -0.59999999999999998 1 0 
8 1.3503468166729455 1.7175130764207116
1 -0.23009646747959001 -1.353991083320716 0.19660762957457451 0.98048224868840284 
8 -0.089999999999999941 1.5899999999999999
1 -0.050000000000000044 -0.59999999999999998 1 0 
8 -0.089999999999999941 1.5899999999999999
1 0.050000000000000044 0.29219999999999979 1 0 
1 0 -0.70710678118654724 1 0 
1 0 -2 1 0 
1 0 0 0 -1 
1 3.0517635622701835 0 0 -1 
1 -0.1038138669868538 0.025059517366960438 -0.14038584553084091 0.99009687120735368 
1 2.5237379347221105 -2.5177197546634398 -0.71404068008251786 -0.70010421166230352 
1 0 0 0 -1 
1 2 0 0 -1 
Curves 32
1 1.3999999999999999 2.9922 0 0 0 1 
8 -0.64121946702448451 0.7871393163424012
1 1.490018137049067 2.5432795505363011 2.4489204494636989 0.14038584553084091 -0.70010421166230352 0.70010421166230352 
1 2 0 0 -0.19660762957457448 0.98048224868840272 0 
1 2 0 0 0 0 1 
1 1.9130272399844004 0.43373315419779446 0.80000000000000004 -0.19660762957457451 0.98048224868840284 0 
1 1.9398435933426912 0.30000000000000004 0 -0 0 -1 
1 1.4585923400842189 2.7000000000000002 0 -0 0 -1 
1 1.6721146274691907 1.6351643528111472 0.59999999999999998 -0.19660762957457451 0.98048224868840284 0 
1 -0.050000000000000044 2.9922 0.59999999999999998 -1 0 0 
1 0 2.9922 0 0 0 1 
1 0 2.9922 2 1 -0 -0 
1 0 2.4922 2.5 0 -0.70710678118654757 0.70710678118654757 
1 0 1.9922 3 1 -0 -0 
1 0 0 0 1 0 0 
1 -1.3999999999999999 1.9922 3 1 0 0 
1 0 0 0 -1 0 0 
1 -2 0 0 0.19660762957457448 0.98048224868840272 0 
1 0 0 0.80000000000000004 1 0 -0 
1 0 0 0 0 0 1 
1 0 0.29999999999999999 0.80000000000000004 1 0 -0 
1 -2.0096636400017331 -0.048192572688643825 0.80000000000000004 0.19660762957457451 0.98048224868840284 -0 
1 0 0.29999999999999999 0 1 0 -0 
1 -1.9398435933426907 0.30000000000000004 0 0 0 -1 
1 0 0 0 1 0 -0 
1 0 0 0.59999999999999998 1 0 -0 
1 -1.4585923400842187 2.7000000000000002 0 0 0 -1 
1 -1.73009646747959 1.3460089166792841 0.59999999999999998 0.19660762957457451 0.98048224868840284 -0 
1 -1.45 2.9922 0.59999999999999998 1 0 0 
1 -1.3999999999999999 2.9922 2 1 0 0 
1 -1.3999999999999999 2.9922 0 0 0 1 
8 -0.73948955889607348 0.68886922447081234
1 -1.5038138669868537 2.4744802453365602 2.5177197546634398 -0.14038584553084091 -0.70010421166230352 0.70010421166230352 
1 -2 0 0 0 0 1 
Polygon3D 0
PolygonOnTriangulations 127
2 1 2 
p 0.0166536666666667 1 0.6 2 
2 1 4 
p 0.0166536666666667 1 0.6 2 
2 1 2 
p 0.0166536666666667 1 0.6 2 
2 2 3 
p 0.0166536666666667 1 -0.641219467024485 0.787139316342401 
2 3 4 
p 0.0166536666666667 1 -0.641219467024485 0.787139316342401 
2 3 4 
p 0.0166536666666667 1 -0.641219467024485 0.787139316342401 
2 3 4 
p 0.0166536666666667 1 -0.641219467024485 0.787139316342401 
2 2 3 
p 0.0166666666666667 1 -0.641219467024485 0.787139316342401 
2 2 3 
p 0.0166536666666667 1 -0.641219467024485 0.787139316342401 
2 2 3 
p 0.0166536666666667 1 -0.641219467024485 0.787139316342401 
2 2 3 
p 0.0166536666666667 1 -0.641219467024485 0.787139316342401 
2 5 3 
p 0.0166536666666667 1 0 2.03185728519305 
2 1 2 
p 0.0166536666666667 1 0 2.03185728519305 
2 6 4 
p 0.0166536666666667 1 0 2.03185728519305 
2 6 4 
p 0.0166536666666667 1 0 2.03185728519305 
2 4 3 
p 0.0166666666666667 1 0 2.03185728519305 
2 4 3 
p 0.0166536666666667 1 0 2.03185728519305 
2 4 3 
p 0.0166536666666667 1 0 2.03185728519305 
2 4 3 
p 0.0166536666666667 1 0 2.03185728519305 
2 5 4 
p 0.0166536666666667 1 0.8 3 
2 2 3 
p 0.0166536666666667 1 0.8 3 
2 5 6 
p 0.0166536666666667 1 -0.442367166542793 -0.136395283419654 
2 3 2 
p 0.0166536666666667 1 -0.442367166542793 -0.136395283419654 
2 6 7 
p 0.0166536666666667 1 -0.8 -0 
2 3 2 
p 0.0166536666666667 1 -0.8 -0 
2 7 8 
p 0.0166536666666667 1 0.305971883123138 2.75374694810825 
2 4 3 
p 0.0166536666666667 1 0.305971883123138 2.75374694810825 
2 7 6 
p 0.0166536666666667 1 -0.6 0 
2 3 2 
p 0.0166536666666667 1 -0.6 0 
2 9 8 
p 0.0166536666666667 1 -0.6 0 
2 7 1 
p 0.0166536666666667 1 1.0860325606234 1.38404917478533 
2 5 4 
p 0.0166536666666667 1 1.0860325606234 1.38404917478533 
2 9 1 
p 0.0166536666666667 1 1.0860325606234 1.38404917478533 
2 1 2 
p 0.0166536666666667 1 -1.45 -0.05 
2 4 3 
p 0.0166536666666667 1 -1.45 -0.05 
2 2 3 
p 0.0166536666666667 1 0.6 2 
2 2 3 
p 0.0166536666666667 1 0.6 2 
2 3 2 
p 0.0166536666666667 1 -0 1.4 
2 1 3 
p 0.0166536666666667 1 -0 1.4 
2 3 4 
p 0.0166536666666667 1 -0 1.4 
2 3 4 
p 0.0166536666666667 1 -0 1.4 
2 3 4 
p 0.0166666666666667 1 -0 1.4 
2 3 4 
p 0.0166536666666667 1 -0 1.4 
2 3 4 
p 0.0166536666666667 1 -0 1.4 
2 1 2 
p 0.0166536666666667 1 -0.707106781186547 0.707106781186548 
2 3 4 
p 0.0166536666666667 1 -0.707106781186547 0.707106781186548 
2 2 4 
p 0.0166536666666667 1 -0 1.60052135552436 
2 3 2 
p 0.0166536666666667 1 -0 1.60052135552436 
2 1 2 
p 0.0166536666666667 1 0 2 
2 4 1 
p 0.0166536666666667 1 0 2 
2 1 3 
p 0.0166536666666667 1 0 2 
2 2 4 
p 0.0166536666666667 1 0 2 
2 1 7 
p 0.0166536666666667 1 0 2 
2 1 7 
p 0.0166536666666667 1 0 2 
2 1 5 
p 0.0166666666666667 1 0 2 
2 1 5 
p 0.0166536666666667 1 0 2 
2 1 5 
p 0.0166536666666667 1 0 2 
2 4 3 
p 0.0166536666666667 1 0 2 
2 5 3 
p 0.0166536666666667 1 -0.200521355524363 1.4 
2 2 4 
p 0.0166536666666667 1 -0.200521355524363 1.4 
2 1 6 
p 0.0166536666666667 1 0 2 
2 4 6 
p 0.0166536666666667 1 0 2 
2 2 4 
p 0.0166536666666667 1 0 2 
2 1 3 
p 0.0166536666666667 1 0 2 
2 1 2 
p 0.0166536666666667 1 0 2 
2 1 2 
p 0.0166536666666667 1 0 2 
2 1 2 
p 0.0166666666666667 1 0 2 
2 1 2 
p 0.0166536666666667 1 0 2 
2 1 2 
p 0.0166536666666667 1 0 2 
2 4 3 
p 0.0166536666666667 1 0 2 
2 6 5 
p 0.0166536666666667 1 0 2.03185728519305 
2 5 3 
p 0.0166536666666667 1 0 2.03185728519305 
2 6 4 
p 0.0166536666666667 1 0 2.03185728519305 
2 6 4 
p 0.0166536666666667 1 0 2.03185728519305 
2 4 3 
p 0.0166666666666667 1 0 2.03185728519305 
2 4 3 
p 0.0166536666666667 1 0 2.03185728519305 
2 4 3 
p 0.0166536666666667 1 0 2.03185728519305 
2 4 3 
p 0.0166536666666667 1 0 2.03185728519305 
2 1 2 
p 0.0166536666666667 1 2.5 4.5 
2 4 3 
p 0.0166536666666667 1 2.5 4.5 
2 1 4 
p 0.0166536666666667 1 0.8 3 
2 2 4 
p 0.0166536666666667 1 0.8 3 
2 1 2 
p 0.0166536666666667 1 0.560156406657309 4.43984359334269 
2 4 3 
p 0.0166536666666667 1 0.560156406657309 4.43984359334269 
2 5 4 
p 0.0166536666666667 1 0.5 2.5 
2 1 2 
p 0.0166536666666667 1 0.5 2.5 
2 5 1 
p 0.0166536666666667 1 0.0491519073936436 0.355123790516782 
2 5 6 
p 0.0166536666666667 1 0.0491519073936436 0.355123790516782 
2 1 2 
p 0.0166536666666667 1 0.560156406657309 4.43984359334269 
2 1 4 
p 0.0166536666666667 1 0.560156406657309 4.43984359334269 
2 4 1 
p 0.0166536666666667 1 -0.8 -0 
2 6 7 
p 0.0166536666666667 1 -0.8 -0 
2 1 2 
p 0.0166536666666667 1 0.305971883123138 2.75374694810825 
2 7 8 
p 0.0166536666666667 1 0.305971883123138 2.75374694810825 
2 3 4 
p 0.0166536666666667 1 0.0414076599157811 2.95859234008422 
2 1 2 
p 0.0166536666666667 1 0.0414076599157811 2.95859234008422 
2 2 3 
p 0.0166536666666667 1 0.0414076599157811 2.95859234008422 
2 4 3 
p 0.0166536666666667 1 0.0414076599157813 2.95859234008422 
2 1 5 
p 0.0166536666666667 1 0.0414076599157813 2.95859234008422 
2 4 1 
p 0.0166536666666667 1 -0.6 0 
2 7 6 
p 0.0166536666666667 1 -0.6 0 
2 9 8 
p 0.0166536666666667 1 -0.6 0 
2 1 2 
p 0.0166536666666667 1 1.38094400498526 1.6789606191472 
2 7 1 
p 0.0166536666666667 1 1.38094400498526 1.6789606191472 
2 9 1 
p 0.0166536666666667 1 1.38094400498526 1.6789606191472 
2 2 3 
p 0.0166536666666667 1 0.05 1.45 
2 1 2 
p 0.0166536666666667 1 0.05 1.45 
2 2 3 
p 0.0166536666666667 1 0 1.4 
2 1 3 
p 0.0166536666666667 1 0 1.4 
2 4 3 
p 0.0166536666666667 1 0 1.4 
2 4 3 
p 0.0166536666666667 1 0 1.4 
2 4 3 
p 0.0166666666666667 1 0 1.4 
2 4 3 
p 0.0166536666666667 1 0 1.4 
2 4 3 
p 0.0166536666666667 1 0 1.4 
2 1 4 
p 0.0166536666666667 1 0.6 2 
2 1 2 
p 0.0166536666666667 1 0.6 2 
2 1 2 
p 0.0166536666666667 1 0.6 2 
2 1 2 
p 0.0166536666666667 1 -0.739489558896073 0.688869224470812 
2 2 3 
p 0.0166536666666667 1 -0.739489558896073 0.688869224470812 
2 3 4 
p 0.0166536666666667 1 -0.739489558896073 0.688869224470812 
2 3 4 
p 0.0166536666666667 1 -0.739489558896073 0.688869224470812 
2 2 3 
p 0.0166666666666667 1 -0.739489558896073 0.688869224470812 
2 2 3 
p 0.0166536666666667 1 -0.739489558896073 0.688869224470812 
2 2 3 
p 0.0166536666666667 1 -0.739489558896073 0.688869224470812 
2 2 3 
p 0.0166536666666667 1 -0.739489558896073 0.688869224470812 
2 1 3 
p 0.0166536666666667 1 0.8 3 
2 5 4 
p 0.0166536666666667 1 0.8 3 
Surfaces 16
1 2 0 0 -0.98048224868840284 -0.19660762957457451 0 -0.19660762957457451 0.98048224868840284 0 -0 0 -1 
1 1.3999999999999999 2.9922 0 0 -1 0 -1 0 0 -0 -0 -1 
1 0 2.4922 2.5 0 -0.70710678118654746 -0.70710678118654746 1 0 0 0 -0.70710678118654757 0.70710678118654757 
1 0 0 0 0 1 0 1 0 0 0 0 -1 
1 0 0 0.80000000000000004 0 0 1 1 0 -0 -0 1 0 
1 0 0.29999999999999999 0 -0 1 0 0 0 1 1 0 -0 
1 1.0324833021945108e-16 1.3569659490794885 0 0 0 1 1 0 -0 -0 1 0 
1 0 0 0 -0 1 0 0 0 1 1 0 -0 
1 0 0 0.59999999999999998 0 0 1 1 0 -0 -0 1 0 
1 -1.3999999999999999 2.9922 0 0 1 0 1 0 0 0 0 -1 
1 -1.3999999999999999 2.4922 2.5 0 0.70710678118654746 0.70710678118654746 1 0 -0 0 -0.70710678118654757 0.70710678118654757 
1 0 0 0 -0 1 0 0 0 1 1 0 -0 
1 0 0 0 0 0 1 1 0 -0 -0 1 0 
1 0 0 0 0 -1 0 -1 0 0 -0 -0 -1 
1 -2 0 0 -0.98048224868840284 0.19660762957457451 0 0.19660762957457451 0.98048224868840284 0 0 0 -1 
1 0 0 0 0 0 1 1 0 -0 -0 1 0 
Triangulations 44
9 7 1 7.14807116812594e-16
1.4 2.9922 0.6 1.4 2.9922 2 1.60052135552436 1.9922 3 2 0 3 2 0 0.8 1.93984359334269 0.3 0.8 1.93984359334269 0.3 0 1.45859234008422 2.7 0 1.45859234008422 2.7 0.6 3.05176356227018 -0.6 3.05176356227018 -2 2.03185728519306 -3 0 -3 0 -0.8 0.305971883123138 -0.8 0.305971883123138 0 2.75374694810825 0 2.75374694810825 -0.6 6 4 3 6 5 4 9 3 2 9 7 6 9 6 3 1 9 2 8 7 9 
7 5 1 5.42344586731112e-16
1.4 2.9922 0.6 1.4 2.9922 2 1.60052135552436 1.9922 3 2 0 3 2 0 0 1.45859234008422 2.7 0 1.45859234008422 2.7 0.6 3.05176356227018 -0.6 3.05176356227018 -2 2.03185728519306 -3 0 -3 0 0 2.75374694810825 0 2.75374694810825 -0.6 5 4 3 7 3 2 7 5 3 1 7 2 6 5 7 
4 2 1 5.55111512312578e-17
1.4 2.9922 0.6 0 2.9922 0.6 0 2.9922 2 1.4 2.9922 2 0 -0.6 1.4 -0.6 1.4 -2 0 -2 2 4 3 2 1 4 
5 3 1 4.46036504397568e-16
1.4 2.9922 0 1.4 2.9922 2 1.60052135552436 1.9922 3 2 0 0 2 0 3 3.05176356227018 0 3.05176356227018 -2 2.03185728519306 -3 0 0 0 -3 4 5 3 2 4 3 1 4 2 
4 2 1 2.35513868802566e-16
0 2.9922 2 0 1.9922 3 1.4 2.9922 2 1.60052135552436 1.9922 3 0 -0.707106781186547 0 0.707106781186548 1.4 -0.707106781186547 1.60052135552436 0.707106781186548 2 1 3 4 2 3 
6 4 1 5.93873657494515e-16
1.4 2.9922 0 1.4 2.9922 0.6 1.4 2.9922 2 1.60052135552436 1.9922 3 2 0 0 2 0 3 3.05176356227018 0 3.05176356227018 -0.6 3.05176356227018 -2 2.03185728519306 -3 0 0 0 -3 5 6 4 2 4 3 2 5 4 1 5 2 
6 4 1 5.93873657494515e-16
1.4 2.9922 0 1.4 2.9922 0.6 1.4 2.9922 2 1.60052135552436 1.9922 3 2 0 0 2 0 3 3.05176356227018 0 3.05176356227018 -0.6 3.05176356227018 -2 2.03185728519306 -3 0 0 0 -3 5 6 4 2 4 3 2 5 4 1 5 2 
7 5 1 5.42344586731112e-16
1.4 2.9922 0.6 1.4 2.9922 2 1.60052135552436 1.9922 3 2 0 3 2 0 0 1.45859234008422 2.7 0 1.45859234008422 2.7 0.6 3.05176356227018 -0.6 3.05176356227018 -2 2.03185728519306 -3 0 -3 0 0 2.75374694810825 0 2.75374694810825 -0.6 5 4 3 7 3 2 7 5 3 1 7 2 6 5 7 
7 5 1 5.42344586731112e-16
1.4 2.9922 0.6 1.4 2.9922 2 1.60052135552436 1.9922 3 2 0 3 2 0 0 1.45859234008422 2.7 0 1.45859234008422 2.7 0.6 3.05176356227018 -0.6 3.05176356227018 -2 2.03185728519306 -3 0 -3 0 0 2.75374694810825 0 2.75374694810825 -0.6 5 4 3 7 3 2 7 5 3 1 7 2 6 5 7 
6 4 1 2.96059473233375e-16
2 0 0 1.60052135552436 1.9922 4.44089209850063e-16 0 1.9922 4.44089209850063e-16 0 0 0 -1.60052135552436 1.9922 4.44089209850063e-16 -2 0 0 2 -1.35696594907949 1.60052135552436 0.635234050920511 0 0.635234050920511 0 -1.35696594907949 -1.60052135552436 0.635234050920511 -2 -1.35696594907949 5 6 4 3 5 4 2 4 1 2 3 4 
4 2 1 1.11022302462516e-16
0 0 0.8 2 0 0.8 2 0 3 0 0 3 0 -0.8 2 -0.8 2 -3 0 -3 2 4 3 2 1 4 
5 3 1 0
-1.93984359334269 0.3 0.8 1.93984359334269 0.3 0.8 2 0 0.8 0 0 0.8 -2 0 0.8 0.560156406657309 0.3 4.43984359334269 0.3 4.5 -1.11022302462516e-16 2.5 0 0.5 0 4 1 5 2 4 3 2 1 4 
4 2 1 1.8503717077086e-17
-1.93984359334269 0.3 0 1.93984359334269 0.3 0 1.93984359334269 0.3 0.8 -1.93984359334269 0.3 0.8 0 0.560156406657309 0 4.43984359334269 0.8 4.43984359334269 0.8 0.560156406657309 3 2 1 3 1 4 
4 2 1 1.11022302462516e-16
-1.93984359334269 0.3 0 -1.45859234008422 2.7 0 1.45859234008422 2.7 0 1.93984359334269 0.3 0 -1.93984359334269 -1.05696594907949 -1.45859234008422 1.34303405092051 1.45859234008422 1.34303405092051 1.93984359334269 -1.05696594907949 3 2 1 3 1 4 
4 2 1 0
-1.45859234008422 2.7 0 1.45859234008422 2.7 0 1.45859234008422 2.7 0.6 -1.45859234008422 2.7 0.6 0 0.0414076599157811 0 2.95859234008422 0.6 2.95859234008422 0.6 0.0414076599157813 3 2 1 3 1 4 
5 3 1 2.22044604925031e-16
-1.45859234008422 2.7 0.6 -1.4 2.9922 0.6 0 2.9922 0.6 1.4 2.9922 0.6 1.45859234008422 2.7 0.6 0.0414076599157813 4.44089209850063e-16 0.1 0.2922 1.5 0.2922 2.9 0.2922 2.95859234008422 4.44089209850063e-16 3 2 1 5 3 1 4 3 5 
4 2 1 5.55111512312578e-17
-1.4 2.9922 0.6 0 2.9922 0.6 0 2.9922 2 -1.4 2.9922 2 0 -0.6 1.4 -0.6 1.4 -2 0 -2 2 4 3 2 1 4 
4 2 1 0
1.4 2.9922 0 1.4 2.9922 2 0 2.9922 2 0 2.9922 0 0 0 0 -2 1.4 -2 1.4 0 4 1 2 4 2 3 
4 2 1 5.55111512312578e-17
1.4 2.9922 0.6 0 2.9922 0.6 0 2.9922 2 1.4 2.9922 2 0 -0.6 1.4 -0.6 1.4 -2 0 -2 2 4 3 2 1 4 
4 2 1 5.55111512312578e-17
1.4 2.9922 0.6 0 2.9922 0.6 0 2.9922 2 1.4 2.9922 2 0 -0.6 1.4 -0.6 1.4 -2 0 -2 2 4 3 2 1 4 
4 2 1 5.55111512312578e-17
1.4 2.9922 0.6 0 2.9922 0.6 0 2.9922 2 1.4 2.9922 2 0 -0.6 1.4 -0.6 1.4 -2 0 -2 2 4 3 2 1 4 
4 2 1 5.55111512312578e-17
1.4 2.9922 0.6 0 2.9922 0.6 0 2.9922 2 1.4 2.9922 2 0 -0.6 1.4 -0.6 1.4 -2 0 -2 2 4 3 2 1 4 
4 2 1 2.35513868802566e-16
-1.4 2.9922 2 -1.60052135552436 1.9922 3 0 2.9922 2 0 1.9922 3 5.55111512312578e-17 -0.707106781186548 -0.200521355524363 0.707106781186548 1.4 -0.707106781186547 1.4 0.707106781186548 4 2 1 4 1 3 
6 4 1 1.03248330219451e-16
0 0 0 2 0 0 1.4 2.9922 0 0 2.9922 0 -1.4 2.9922 0 -2 0 0 0 -1.35696594907949 2 -1.35696594907949 1.4 1.63523405092051 0 1.63523405092051 -1.4 1.63523405092051 -2 -1.35696594907949 5 6 1 4 5 1 3 1 2 3 4 1 
4 2 1 0
0 0 0 0 0 3 2 0 0 2 0 3 0 0 0 -3 2 0 2 -3 3 1 2 3 2 4 
7 5 1 1.11022302462516e-16
0 0 0 -2 0 0 -1.4 2.9922 0 -1.4 2.7 0 1.4 2.7 0 1.4 2.9922 0 2 0 0 0 -1.35696594907949 -2 -1.35696594907949 -1.4 1.63523405092051 -1.4 1.34303405092051 1.4 1.34303405092051 1.4 1.63523405092051 2 -1.35696594907949 4 2 1 5 1 7 5 4 1 3 2 4 7 6 5 
7 5 1 1.11022302462516e-16
0 0 0 -2 0 0 -1.4 2.9922 0 -1.4 2.7 0 1.4 2.7 0 1.4 2.9922 0 2 0 0 0 -1.35696594907949 -2 -1.35696594907949 -1.4 1.63523405092051 -1.4 1.34303405092051 1.4 1.34303405092051 1.4 1.63523405092051 2 -1.35696594907949 4 2 1 5 1 7 5 4 1 3 2 4 7 6 5 
5 3 1 1.11022302462516e-16
0 0 0 -2 0 0 -1.45859234008422 2.7 0 1.45859234008422 2.7 0 2 0 0 0 -1.35696594907949 -2 -1.35696594907949 -1.45859234008422 1.34303405092051 1.45859234008422 1.34303405092051 2 -1.35696594907949 3 2 1 4 1 5 4 3 1 
5 3 1 1.11022302462516e-16
0 0 0 -2 0 0 -1.45859234008422 2.7 0 1.45859234008422 2.7 0 2 0 0 0 -1.35696594907949 -2 -1.35696594907949 -1.45859234008422 1.34303405092051 1.45859234008422 1.34303405092051 2 -1.35696594907949 3 2 1 4 1 5 4 3 1 
5 3 1 1.11022302462516e-16
0 0 0 -2 0 0 -1.45859234008422 2.7 0 1.45859234008422 2.7 0 2 0 0 0 -1.35696594907949 -2 -1.35696594907949 -1.45859234008422 1.34303405092051 1.45859234008422 1.34303405092051 2 -1.35696594907949 3 2 1 4 1 5 4 3 1 
4 2 1 0
0 0 0 0 0 3 -2 0 0 -2 0 3 0 0 0 -3 2 0 2 -3 3 1 2 3 2 4 
4 2 1 1.11022302462516e-16
-2 0 0.8 0 0 0.8 -2 0 3 0 0 3 2 -0.8 0 -0.8 2 -3 0 -3 1 4 3 1 2 4 
5 3 1 1.15277563368905e-16
-1.4 2.9922 0 -1.4 2.9922 2 -1.60052135552436 1.9922 3 -2 0 0 -2 0 3 3.05176356227018 0 3.05176356227018 -2 2.03185728519305 -3 0 0 0 -3 4 5 3 2 4 3 1 4 2 
6 4 1 5.93873657494515e-16
-1.4 2.9922 0 -1.4 2.9922 0.6 -1.4 2.9922 2 -1.60052135552436 1.9922 3 -2 0 0 -2 0 3 3.05176356227018 0 3.05176356227018 -0.6 3.05176356227018 -2 2.03185728519305 -3 0 0 0 -3 5 6 4 2 4 3 2 5 4 1 5 2 
6 4 1 5.93873657494515e-16
-1.4 2.9922 0 -1.4 2.9922 0.6 -1.4 2.9922 2 -1.60052135552436 1.9922 3 -2 0 0 -2 0 3 3.05176356227018 0 3.05176356227018 -0.6 3.05176356227018 -2 2.03185728519305 -3 0 0 0 -3 5 6 4 2 4 3 2 5 4 1 5 2 
7 5 1 2.47064150558731e-16
-1.4 2.9922 0.6 -1.4 2.9922 2 -1.60052135552436 1.9922 3 -2 0 3 -2 0 0 -1.45859234008422 2.7 0 -1.45859234008422 2.7 0.6 3.05176356227018 -0.6 3.05176356227018 -2 2.03185728519305 -3 0 -3 0 0 2.75374694810825 0 2.75374694810825 -0.6 5 4 3 7 3 2 7 5 3 1 7 2 6 5 7 
7 5 1 2.47064150558731e-16
-1.4 2.9922 0.6 -1.4 2.9922 2 -1.60052135552436 1.9922 3 -2 0 3 -2 0 0 -1.45859234008422 2.7 0 -1.45859234008422 2.7 0.6 3.05176356227018 -0.6 3.05176356227018 -2 2.03185728519305 -3 0 -3 0 0 2.75374694810825 0 2.75374694810825 -0.6 5 4 3 7 3 2 7 5 3 1 7 2 6 5 7 
7 5 1 2.47064150558731e-16
-1.4 2.9922 0.6 -1.4 2.9922 2 -1.60052135552436 1.9922 3 -2 0 3 -2 0 0 -1.45859234008422 2.7 0 -1.45859234008422 2.7 0.6 3.05176356227018 -0.6 3.05176356227018 -2 2.03185728519305 -3 0 -3 0 0 2.75374694810825 0 2.75374694810825 -0.6 5 4 3 7 3 2 7 5 3 1 7 2 6 5 7 
9 7 1 2.47064150558731e-16
-1.4 2.9922 0.6 -1.4 2.9922 2 -1.60052135552436 1.9922 3 -2 0 3 -2 0 0.8 -1.93984359334269 0.3 0.8 -1.93984359334269 0.3 0 -1.45859234008422 2.7 0 -1.45859234008422 2.7 0.6 3.05176356227018 -0.6 3.05176356227018 -2 2.03185728519305 -3 0 -3 0 -0.8 0.305971883123138 -0.8 0.305971883123139 0 2.75374694810825 0 2.75374694810825 -0.6 6 4 3 6 5 4 9 3 2 9 7 6 9 6 3 1 9 2 8 7 9 
4 2 1 0
-1.4 2.9922 0 -1.4 2.9922 2 0 2.9922 2 0 2.9922 0 0 0 0 -2 1.4 -2 1.4 0 4 1 2 4 2 3 
4 2 1 5.55111512312578e-17
-1.4 2.9922 0.6 0 2.9922 0.6 0 2.9922 2 -1.4 2.9922 2 0 -0.6 1.4 -0.6 1.4 -2 0 -2 2 4 3 2 1 4 
4 2 1 5.55111512312578e-17
-1.4 2.9922 0.6 0 2.9922 0.6 0 2.9922 2 -1.4 2.9922 2 0 -0.6 1.4 -0.6 1.4 -2 0 -2 2 4 3 2 1 4 
4 2 1 5.55111512312578e-17
-1.4 2.9922 0.6 0 2.9922 0.6 0 2.9922 2 -1.4 2.9922 2 0 -0.6 1.4 -0.6 1.4 -2 0 -2 2 4 3 2 1 4 
4 2 1 5.55111512312578e-17
-1.4 2.9922 0.6 0 2.9922 0.6 0 2.9922 2 -1.4 2.9922 2 0 -0.6 1.4 -0.6 1.4 -2 0 -2 2 4 3 2 1 4 

TShapes 90
Ve
1.50000000496507e-07
1.4 2.9922 0.6
0 0

0101101
*
Ve
0.0001
1.4 2.9922 2
0 0

0101101
*
Ed
 1e-07 1 1 0
1  1 0 0.6 2
2  1 1 0 0.6 2
2  2 2 0 0.6 2
6  1 2 6
6  2 3 6
6  3 1 7
0

0101000
+90 6 -89 8 *
Ve
0.0001
1.60052135552436 1.9922 3
0 0

0101101
*
Ed
 1e-07 1 1 0
1  2 0 -0.641219467024485 0.787139316342401
2  3 3 0 -0.641219467024485 0.787139316342401
2  4 1 2 -0.641219467024485 0.787139316342401
6  4 4 2
6  5 5 0
6  6 6 10
6  7 7 10
6  8 8 10
6  9 9 10
6  10 2 10
6  11 1 11
0

0101000
+89 0 -87 0 *
Ve
2.3667056108547e-07
2 0 0
0 0

0101101
*
Ed
 1e-07 1 1 0
1  3 0 0 2.03185728519305
6  12 4 16
6  13 10 17
2  5 1 16 0 2.03185728519305
6  14 6 18
6  15 7 18
6  16 8 18
6  17 9 18
6  18 2 18
6  19 1 19
0

0101000
-87 20 +85 17 *
Ve
1.50000000248253e-07
2 0 0.8
0 0

0101101
*
Ed
 1e-07 1 1 0
1  4 0 0.8 3
2  6 1 0 0.8 3
2  7 4 0 0.8 3
6  20 1 7
6  21 11 7
0

0101000
+83 7 -85 21 *
Ve
1.50000000228878e-07
1.93984359334269 0.3 0.8
0 0

0101101
*
Ed
 1.5e-07 1 1 0
1  5 0 -0.442367166542793 -0.136395283419654
2  8 1 5 -0.442367166542793 -0.136395283419654
2  9 5 22 -0.442367166542793 -0.136395283419654
6  22 1 0
6  23 12 0
0

0101000
+83 0 -81 0 *
Ve
1.50000000111022e-07
1.93984359334269 0.3 0
0 0

0101101
*
Ed
 1.5e-07 1 1 0
1  6 0 -0.8 -0
2  10 1 5 -0.8 -0
2  11 6 22 -0.8 -0
6  24 1 0
6  25 13 0
0

0101000
+81 0 -79 0 *
Ve
1.5e-07
1.45859234008422 2.7 0
0 0

0101101
*
Ed
 1e-07 1 1 0
1  3 0 0.305971883123138 2.75374694810825
2  12 1 24 0.305971883123138 2.75374694810825
2  13 7 17 0.305971883123138 2.75374694810825
6  26 1 25
6  27 14 25
0

0101000
+79 25 -77 26 *
Ve
1.50000000496507e-07
1.45859234008422 2.7 0.6
0 0

0101101
*
Ed
 1.5e-07 1 1 0
1  7 0 -0.6 0
2  14 1 27 -0.6 0
2  15 8 28 -0.6 0
6  28 2 0
6  29 15 0
6  30 1 29
0

0101000
+75 0 -77 0 *
Ed
 1.5e-07 1 1 0
1  8 0 1.0860325606234 1.38404917478533
2  16 1 27 1.0860325606234 1.38404917478533
2  17 9 28 1.0860325606234 1.38404917478533
6  31 2 0
6  32 16 0
6  33 1 29
0

0101000
+75 0 -90 0 *
Wi

0101100
-88 5 -86 9 +84 15 +82 5 -80 0 -78 0 -76 23 +74 4 -73 4 *
Fa
0  1e-07 1 5
2  1
0101000
+72 0 *
Ve
1.5e-07
0 2.9922 0.6
0 0

0101101
*
Ed
 1.5e-07 1 1 0
1  9 0 -1.45 -0.05
2  18 2 27 -1.45 -0.05
2  19 9 28 -1.45 -0.05
6  34 3 0
6  35 16 0
0

0101000
+90 0 -70 0 *
Ve
1e-07
0 2.9922 2
0 0

0101101
*
Ed
 1e-07 1 1 0
1  10 0 0.6 2
4 C2 2 0 10 0
2  20 2 0 0.6 2
2  21 10 0 0.6 2
6  36 3 6
6  37 17 6
0

0101000
+70 6 -68 8 *
Ed
 1e-07 1 1 0
1  11 0 -0 1.4
2  22 3 0 -0 1.4
2  23 2 2 -0 1.4
6  38 18 2
6  39 5 0
6  40 19 10
6  41 20 10
6  42 21 10
6  43 22 10
6  44 3 10
0

0101000
+68 0 -89 0 *
Wi

0101100
-69 0 -67 27 -66 3 +88 27 *
Fa
0  1e-07 2 27
2  3
0101000
+65 0 *
Ve
1e-07
0 1.9922 3
0 0

0101101
*
Ed
 1e-07 1 1 0
1  12 0 -0.707106781186547 0.707106781186548
2  24 11 0 -0.707106781186547 0.707106781186548
2  25 3 0 -0.707106781186547 0.707106781186548
4 G1 11 0 3 0
6  45 5 0
6  46 23 0
0

0101000
+68 0 -63 0 *
Ed
 1e-07 1 1 0
1  13 0 -0 1.60052135552436
2  26 3 0 -0 1.60052135552436
2  27 7 30 -0 1.60052135552436
6  47 5 0
6  48 10 30
0

0101000
+63 0 -87 0 *
Wi

0101100
-62 0 +66 0 -61 0 +86 0 *
Fa
0  0 3 0
2  5
0101000
+60 0 *
Ve
1.00000000444089e-07
0 0 0
0 0

0101101
*
Ed
 1.00000000444089e-07 1 1 0
1  14 0 0 2
6  49 24 17
6  50 10 17
6  51 25 24
6  52 25 16
2  28 7 17 0 2
6  53 26 26
6  54 27 26
6  55 28 26
6  56 29 26
6  57 30 26
2  29 4 24 0 2
2  30 4 16 0 2
2  31 12 34 0 2
2  32 13 34 0 2
6  58 11 19
0

0101000
+58 17 -85 17 *
Ve
0.0001
-1.60052135552436 1.9922 3
0 0

0101101
*
Ed
 1e-07 1 1 0
1  15 0 -0.200521355524363 1.4
2  33 11 0 -0.200521355524363 1.4
2  34 7 30 -0.200521355524363 1.4
6  59 10 30
6  60 23 0
0

0101000
+56 0 -63 0 *
Ve
2.3667056108547e-07
-2 0 0
0 0

0101101
*
Ed
 1.00000000166533e-07 1 1 0
1  16 0 0 2
6  61 24 17
6  62 10 17
6  63 31 16
6  64 31 24
2  35 7 17 0 2
6  65 26 26
6  66 27 26
6  67 28 26
6  68 29 26
6  69 30 26
2  36 14 24 0 2
2  37 14 16 0 2
2  38 12 34 0 2
2  39 13 34 0 2
6  70 32 19
0

0101000
+58 17 -54 17 *
Ed
 1e-07 1 1 0
1  17 0 0 2.03185728519305
6  71 10 17
6  72 33 16
2  40 15 16 0 2.03185728519305
6  73 34 18
6  74 35 18
6  75 36 18
6  76 37 18
6  77 38 18
6  78 39 19
0

0101000
-56 20 +54 17 *
Wi

0101100
+84 33 -61 0 +57 33 -55 0 -53 33 -52 33 *
Fa
0  1e-07 7 0
2  10
0101000
+51 32 *
Ve
2.12133034355964e-07
0 0 0.8
0 0

0101101
*
Ed
 1e-07 1 1 0
1  18 0 2.5 4.5
2  41 12 0 2.5 4.5
2  42 5 0 2.5 4.5
2  43 4 35 2.5 4.5
6  79 11 36
6  80 12 36
0

0101000
+49 36 -83 36 *
Ed
 1e-07 1 1 0
1  19 0 0.8 3
4 C2 4 0 14 0
2  44 4 0 0.8 3
2  45 14 0 0.8 3
6  81 11 7
6  82 32 7
0

0101000
+49 7 -58 21 *
Wi

0101100
-48 22 -82 5 +57 15 +47 5 *
Fa
0  1e-07 4 5
2  11
0101000
+46 0 *
Ve
1.50000000055511e-07
-1.93984359334269 0.3 0.8
0 0

0101101
*
Ed
 1e-07 1 1 0
1  20 0 0.560156406657309 4.43984359334269
2  46 6 0 0.560156406657309 4.43984359334269
2  47 5 0 0.560156406657309 4.43984359334269
6  83 12 36
6  84 13 36
0

0101000
+44 36 -81 36 *
Ve
1.50000000222478e-07
-2 0 0.8
0 0

0101101
*
Ed
 1e-07 1 1 0
1  18 0 0.5 2.5
2  41 12 0 0.5 2.5
2  42 5 0 0.5 2.5
2  48 14 35 0.5 2.5
6  85 12 36
6  86 32 36
0

0101000
+42 36 -49 36 *
Ed
 1.5e-07 1 1 0
1  21 0 0.0491519073936436 0.355123790516782
2  49 15 5 0.0491519073936436 0.355123790516782
2  50 5 22 0.0491519073936436 0.355123790516782
6  87 12 0
6  88 39 0
0

0101000
+42 0 -44 0 *
Wi

0101100
-43 22 +80 0 +48 22 +41 22 -40 0 *
Fa
0  1e-07 5 22
2  12
0101000
+39 0 *
Ve
1.50000000228878e-07
-1.93984359334269 0.3 0
0 0

0101101
*
Ed
 1e-07 1 1 0
1  22 0 0.560156406657309 4.43984359334269
2  51 6 0 0.560156406657309 4.43984359334269
2  52 13 0 0.560156406657309 4.43984359334269
2  53 7 37 0.560156406657309 4.43984359334269
6  89 13 36
6  90 14 36
0

0101000
+37 36 -79 36 *
Ed
 1.5e-07 1 1 0
1  23 0 -0.8 -0
2  54 15 5 -0.8 -0
2  55 6 22 -0.8 -0
6  91 13 0
6  92 39 0
0

0101000
+44 0 -37 0 *
Wi

0101100
-36 22 +78 0 +43 22 -35 0 *
Fa
0  1e-07 6 22
2  13
0101000
+34 0 *
Ve
1.50000000222045e-07
-1.45859234008422 2.7 0
0 0

0101101
*
Ed
 1e-07 1 1 0
1  17 0 0.305971883123138 2.75374694810825
2  56 7 17 0.305971883123138 2.75374694810825
2  57 15 24 0.305971883123138 2.75374694810825
6  93 14 25
6  94 39 25
0

0101000
+37 25 -32 26 *
Ed
 1e-07 1 1 0
1  24 0 0.0414076599157811 2.95859234008422
2  58 8 0 0.0414076599157811 2.95859234008422
2  59 16 0 0.0414076599157811 2.95859234008422
2  60 7 40 0.0414076599157811 2.95859234008422
6  95 30 41
6  96 15 41
6  97 14 42
0

0101000
+32 41 -77 41 *
Wi

0101100
-31 23 -30 39 +76 23 +36 22 *
Fa
0  1e-07 7 38
2  14
0101000
+29 0 *
Ve
1.50000000444089e-07
-1.45859234008422 2.7 0.6
0 0

0101101
*
Ed
 1e-07 1 1 0
1  25 0 0.0414076599157813 2.95859234008422
2  61 8 0 0.0414076599157813 2.95859234008422
2  62 9 0 0.0414076599157813 2.95859234008422
6  98 15 41
6  99 16 41
0

0101000
+27 41 -75 41 *
Ed
 1.5e-07 1 1 0
1  26 0 -0.6 0
2  63 15 27 -0.6 0
2  64 8 28 -0.6 0
6  100 15 0
6  101 38 0
6  102 39 29
0

0101000
+27 0 -32 0 *
Wi

0101100
-30 28 +74 0 +26 28 -25 0 *
Fa
0  1e-07 8 28
2  15
0101000
+24 0 *
Ve
1.50000000444089e-07
-1.4 2.9922 0.6
0 0

0101101
*
Ed
 1.5e-07 1 1 0
1  27 0 1.38094400498526 1.6789606191472
2  65 15 27 1.38094400498526 1.6789606191472
2  66 9 28 1.38094400498526 1.6789606191472
6  103 16 0
6  104 38 0
6  105 39 29
0

0101000
+27 0 -22 0 *
Ed
 1.5e-07 1 1 0
1  28 0 0.05 1.45
2  67 10 27 0.05 1.45
2  68 9 28 0.05 1.45
6  106 16 0
6  107 17 0
0

0101000
+22 0 -70 0 *
Wi

0101100
-21 0 -20 0 +69 0 +73 0 +26 28 *
Fa
0  1e-07 9 28
2  16
0101000
+19 0 *
Ve
0.0001
-1.4 2.9922 2
0 0

0101101
*
Ed
 1e-07 1 1 0
1  29 0 0 1.4
2  69 11 0 0 1.4
2  70 10 2 0 1.4
6  108 40 2
6  109 23 0
6  110 41 10
6  111 42 10
6  112 43 10
6  113 44 10
6  114 17 10
0

0101000
+17 0 -68 0 *
Ed
 1e-07 1 1 0
1  30 0 0.6 2
2  71 10 0 0.6 2
2  72 15 0 0.6 2
6  115 17 6
6  116 38 6
6  117 39 7
0

0101000
+22 6 -17 8 *
Wi

0101100
-20 0 -67 27 +16 3 +15 27 *
Fa
0  1e-07 10 27
2  17
0101000
+14 0 *
Ed
 1e-07 1 1 0
1  31 0 -0.739489558896073 0.688869224470812
2  73 11 0 -0.739489558896073 0.688869224470812
2  74 15 2 -0.739489558896073 0.688869224470812
6  118 23 0
6  119 33 2
6  120 34 10
6  121 35 10
6  122 36 10
6  123 37 10
6  124 38 10
6  125 39 11
0

0101000
+17 0 -56 0 *
Wi

0101100
-12 0 +16 0 -55 0 +62 0 *
Fa
0  0 11 0
2  23
0111000
+11 0 *
Ed
 1e-07 1 1 0
1  32 0 0.8 3
2  75 15 0 0.8 3
2  76 14 0 0.8 3
6  126 32 7
6  127 39 7
0

0101000
+42 7 -54 21 *
Wi

0101100
+41 22 -9 5 +53 15 +47 5 *
Fa
0  1e-07 14 5
2  32
0101000
+8 0 *
Wi

0101100
-15 5 -12 9 +52 15 +9 5 -40 0 -35 0 -31 23 +25 4 -21 4 *
Fa
0  1e-07 15 5
2  39
0101000
+6 0 *
Sh

0101100
-71 0 -64 4 -59 9 +50 31 -45 0 -38 0 -33 0 -28 0 +23 4 -18 4 
+13 4 -10 9 +7 0 +5 0 *
So

0100000
+4 0 *
Co

0100000
+3 0 *
Co

1100000
+2 1 *

+1 0 