DBRep_DrawableShape

CASCADE Topology V1, (c) Matra-Datavision
Locations 0
Curve2ds 0
Curves 55
1 0.82499999999999996 -0.098000000000000004 0 0 1 0 
1 0.82499999999999996 0 0 1 0 0 
1 1.7869999999999999 0 0 0 1 0 
1 1.7869999999999999 0.37 0 1 0 0 
1 1.825 0.37 0 0 1 0 
1 1.825 2.4700000000000002 0 -1 0 0 
1 -0.85499999999999998 2.4700000000000002 0 0 1 0 
1 -0.85499999999999998 2.5390000000000001 0 -1 0 0 
1 -2.1749999999999998 2.5390000000000001 0 0 -1 0 
1 -2.1749999999999998 0.45000000000000001 0 1 0 0 
1 -1.2609999999999999 0.45000000000000001 0 0 -1 0 
1 -1.2609999999999999 0 0 1 0 0 
1 -0.875 0 0 0 -1 0 
1 -0.875 -0.098000000000000004 0 1 0 0 
1 -0.875 -0.098000000000000004 0 0 0 1 
1 -0.875 -0.098000000000000004 2 1 0 0 
1 0.82499999999999996 -0.098000000000000004 0 0 0 1 
1 0.82499999999999996 -0.098000000000000004 2 0 1 0 
1 0.82499999999999996 0 0 0 0 1 
1 0.82499999999999996 0 2 0.75682300776915923 0 0.65361987034609281 
1 0.93500000000000005 0 2.0950000000000002 1 0 0 
1 1.7869999999999999 0 0 0 0 1 
1 1.7869999999999999 0 2.0950000000000002 0 1 0 
1 1.7869999999999999 0.37 0 0 0 1 
1 1.7869999999999999 0.37 2.0950000000000002 1 0 0 
1 1.825 0.37 0 0 0 1 
1 1.825 0.37 2.0950000000000002 0 1 0 
1 1.825 2.4700000000000002 0 0 0 1 
1 1.825 2.4700000000000002 2.0950000000000002 -1 0 0 
1 0.93500000000000005 2.4700000000000002 2.0950000000000002 0 0 1 
1 0.93500000000000005 2.4700000000000002 2.476 -1 0 0 
1 -0.85499999999999998 2.4700000000000002 2.476 0 0 -1 
1 -0.85499999999999998 2.4700000000000002 0 0 0 1 
1 -0.85499999999999998 2.4700000000000002 2.1459999999999999 0 1 0 
1 -0.85499999999999998 2.5390000000000001 0 0 0 1 
1 -0.85499999999999998 2.5390000000000001 2.1459999999999999 -1 0 0 
1 -2.1749999999999998 2.5390000000000001 0 0 0 1 
1 -2.1749999999999998 2.5390000000000001 2.1459999999999999 0 -1 0 
1 -2.1749999999999998 0.45000000000000001 0 0 0 1 
1 -2.1749999999999998 0.45000000000000001 2.1459999999999999 1 0 0 
1 -1.2609999999999999 0.45000000000000001 0 0 0 1 
1 -1.2609999999999999 0.45000000000000001 2.1459999999999999 0 -1 0 
1 -1.2609999999999999 0 0 0 0 1 
1 -1.2609999999999999 0 2.1459999999999999 1 0 0 
1 -0.875 0 2 0.13571882129149879 0 0.99074739542793966 
1 -0.875 0 0 0 0 1 
1 -0.875 0 2 0 -1 0 
1 -0.85499999999999998 0 2.1459999999999999 0 0 1 
1 -0.85499999999999998 0 2.476 1 0 0 
1 0.93500000000000005 0 2.476 0 0 -1 
1 -0.875 0 2 1 0 0 
1 -0.85499999999999998 0 2.1459999999999999 0 1 0 
1 -0.85499999999999998 0 2.476 0 1 0 
1 0.93500000000000005 0 2.476 0 1 0 
1 0.93500000000000005 0 2.0950000000000002 0 1 0 
Polygon3D 0
PolygonOnTriangulations 110
2 1 2 
p 0.01 1 0 0.098 
2 1 4 
p 0.01 1 0 0.098 
2 2 3 
p 0.01 1 0 0.962 
2 5 4 
p 0.01 1 0 0.962 
2 3 4 
p 0.01 1 0 0.37 
2 1 4 
p 0.01 1 0 0.37 
2 4 5 
p 0.01 1 0 0.038 
2 1 4 
p 0.01 1 0 0.038 
2 5 6 
p 0.01 1 0 2.1 
2 1 4 
p 0.01 1 0 2.1 
2 6 7 
p 0.01 1 0 2.68 
2 1 7 
p 0.01 1 0 2.68 
2 7 8 
p 0.01 1 0 0.069 
2 1 4 
p 0.01 1 0 0.069 
2 8 9 
p 0.01 1 0 1.32 
2 1 4 
p 0.01 1 0 1.32 
2 9 10 
p 0.01 1 0 2.089 
2 1 4 
p 0.01 1 0 2.089 
2 10 11 
p 0.01 1 0 0.914 
2 1 4 
p 0.01 1 0 0.914 
2 11 12 
p 0.01 1 0 0.45 
2 1 4 
p 0.01 1 0 0.45 
2 12 13 
p 0.01 1 0 0.386 
2 1 5 
p 0.01 1 0 0.386 
2 13 14 
p 0.01 1 0 0.098 
2 1 4 
p 0.01 1 0 0.098 
2 14 1 
p 0.01 1 0 1.7 
2 1 4 
p 0.01 1 0 1.7 
2 1 2 
p 0.01 1 0 2 
2 4 3 
p 0.01 1 0 2 
2 2 3 
p 0.01 1 0 1.7 
2 2 3 
p 0.01 1 0 1.7 
2 4 3 
p 0.01 1 0 2 
2 1 2 
p 0.01 1 0 2 
2 2 3 
p 0.01 1 0 0.098 
2 3 4 
p 0.01 1 0 0.098 
2 4 3 
p 0.01 1 0 2 
2 5 1 
p 0.01 1 0 2 
2 1 2 
p 0.01 1 0 0.145344418537487 
2 6 5 
p 0.01 1 0 0.145344418537487 
2 2 3 
p 0.01 1 0 0.852 
2 1 6 
p 0.01 1 0 0.852 
2 4 3 
p 0.01 1 0 2.095 
2 1 2 
p 0.01 1 0 2.095 
2 2 3 
p 0.01 1 0 0.37 
2 6 5 
p 0.01 1 0 0.37 
2 4 3 
p 0.01 1 0 2.095 
2 1 2 
p 0.01 1 0 2.095 
2 2 3 
p 0.01 1 0 0.038 
2 5 4 
p 0.01 1 0 0.038 
2 4 3 
p 0.01 1 0 2.095 
2 1 2 
p 0.01 1 0 2.095 
2 2 3 
p 0.01 1 0 2.1 
2 4 3 
p 0.01 1 0 2.1 
2 4 3 
p 0.01 1 0 2.095 
2 1 2 
p 0.01 1 0 2.095 
2 2 3 
p 0.01 1 0 0.89 
2 3 2 
p 0.01 1 0 0.89 
2 3 4 
p 0.01 1 0 0.381 
2 3 4 
p 0.01 1 0 0.381 
2 4 5 
p 0.01 1 0 1.79 
2 3 2 
p 0.01 1 0 1.79 
2 5 6 
p 0.01 1 0 0.33 
2 3 2 
p 0.01 1 0 0.33 
2 7 6 
p 0.01 1 0 2.146 
2 1 2 
p 0.01 1 0 2.146 
2 2 3 
p 0.01 1 0 0.069 
2 6 7 
p 0.01 1 0 0.069 
2 4 3 
p 0.01 1 0 2.146 
2 1 2 
p 0.01 1 0 2.146 
2 2 3 
p 0.01 1 0 1.32 
2 7 1 
p 0.01 1 0 1.32 
2 4 3 
p 0.01 1 0 2.146 
2 1 2 
p 0.01 1 0 2.146 
2 2 3 
p 0.01 1 0 2.089 
2 1 2 
p 0.01 1 0 2.089 
2 4 3 
p 0.01 1 0 2.146 
2 1 2 
p 0.01 1 0 2.146 
2 2 3 
p 0.01 1 0 0.914 
2 2 3 
p 0.01 1 0 0.914 
2 4 3 
p 0.01 1 0 2.146 
2 1 2 
p 0.01 1 0 2.146 
2 2 3 
p 0.01 1 0 0.45 
2 3 4 
p 0.01 1 0 0.45 
2 4 3 
p 0.01 1 0 2.146 
2 1 2 
p 0.01 1 0 2.146 
2 2 3 
p 0.01 1 0 0.406 
2 4 5 
p 0.01 1 0 0.406 
2 4 3 
p 0.01 1 0 0.147363496158309 
2 1 2 
p 0.01 1 0 0.147363496158309 
2 5 4 
p 0.01 1 0 2 
2 1 2 
p 0.01 1 0 2 
2 2 3 
p 0.01 1 0 0.098 
2 1 2 
p 0.01 1 0 0.098 
2 2 3 
p 0.01 1 0 0.33 
2 1 4 
p 0.01 1 0 0.33 
2 3 4 
p 0.01 1 0 1.79 
2 1 4 
p 0.01 1 0 1.79 
2 4 5 
p 0.01 1 0 0.381 
2 1 2 
p 0.01 1 0 0.381 
2 1 6 
p 0.01 1 0 1.7 
2 1 4 
p 0.01 1 0 1.7 
2 5 6 
p 0.01 1 0 2.47 
2 1 2 
p 0.01 1 0 2.47 
2 4 3 
p 0.01 1 0 2.47 
2 1 2 
p 0.01 1 0 2.47 
2 4 3 
p 0.01 1 0 2.47 
2 1 4 
p 0.01 1 0 2.47 
2 2 3 
p 0.01 1 0 2.47 
2 1 2 
p 0.01 1 0 2.47 
Surfaces 22
1 -0.15678996534578876 1.2555941690522825 0 0 0 1 1 0 -0 -0 1 0 
1 -0.025000000000000026 -0.098000000000000018 1.0000000000000002 0 1 3.3313382821833264e-33 0 -3.3313382821833264e-33 1 1 0 -0 
1 0.82499999999999973 -0.048999999999999995 0.99999999999999978 -1 -6.2129263736814039e-31 5.2875865012728679e-32 6.2129263736814039e-31 -1 0 5.2875865012728679e-32 3.2851385626879982e-62 1 
1 1.3110605442282439 0 1.0367836322188972 0 1 0 0 -0 1 1 0 -0 
1 1.7870000000000006 0.18500000000000003 1.0475000000000003 -1 3.4434725788370505e-31 1.2411459439156728e-31 -3.4434725788370505e-31 -1 0 1.2411459439156728e-31 -4.2738520242084474e-62 1 
1 1.8059999999999998 0.37 1.0474999999999999 0 1 0 0 -0 1 1 0 -0 
1 1.825 1.4200000000000002 1.0475000000000001 -1 -0 -0 0 0 -1 0 -1 0 
1 0.45211695112490313 2.4700000000000006 1.2051169511249031 1.8503687057253744e-32 -1 4.0923245051627236e-32 0 -4.0923245051627236e-32 -1 1 1.8503687057253744e-32 -7.5723091980261826e-64 
1 -0.85500000000000009 2.5045000000000002 1.073 -1 -0 -0 0 0 -1 0 -1 0 
1 -1.5149999999999997 2.5389999999999993 1.0729999999999997 -4.3799964293355944e-31 -1 1.5908653276638052e-31 -1 4.3799964293355944e-31 0 -6.9679844547212672e-62 -1.5908653276638052e-31 -1 
1 -2.1749999999999994 1.4944999999999999 1.073 1 9.160092443960711e-32 0 -9.160092443960711e-32 1 0 0 -0 1 
1 -1.718 0.45000000000000001 1.073 0 1 0 0 -0 1 1 0 -0 
1 -1.2610000000000001 0.22500000000000006 1.073 1 2.7045743827451975e-31 2.2125141345992034e-33 -2.7045743827451975e-31 1 0 -2.2125141345992034e-33 -5.9839090498986654e-64 1 
1 -1.0668601031716778 0 1.0774880756656924 0 1 0 0 -0 1 1 0 -0 
1 -0.87499999999999989 -0.048999999999999995 0.99999999999999978 1 -3.1064631868407019e-31 2.6437932506364339e-32 3.1064631868407019e-31 1 0 -2.6437932506364339e-32 8.2128464067199955e-63 1 
1 0.023058611307865819 0 2.2405823688639259 0 1 0 0 -0 1 1 0 -0 
1 -0.025000000000000057 -0.049000000000000002 2 0 0 1 1 0 -0 -0 1 0 
1 -1.4617089919668309 1.3227910080331695 2.1459999999999995 -2.7169435187220196e-31 6.3680736652479599e-32 1 1 0 2.7169435187220196e-31 1.7301696471539821e-62 1 -6.3680736652479599e-32 
1 -0.85499999999999976 1.2350000000000001 2.3109999999999999 1 0 0 -0 0 1 0 -1 0 
1 0.040000000000000063 1.2350000000000003 2.476 -0 -0 -1 -1 0 0 0 1 -0 
1 0.93499999999999994 1.2349999999999999 2.2854999999999999 1 -1.4002844822205501e-32 -6.6208348297936676e-31 6.6208348297936676e-31 0 1 -1.4002844822205501e-32 -1 9.2710522715054104e-63 
1 1.3779077380952383 1.2370922619047622 2.0949999999999998 -3.957784809104709e-31 -6.4865388514184282e-32 -1 -1 0 3.957784809104709e-31 -2.5672324929811362e-62 1 -6.4865388514184282e-32 
Triangulations 22
14 12 1 0.01
0.825 -0.098 0 0.825 0 0 1.787 0 0 1.787 0.37 0 1.825 0.37 0 1.825 2.47 0 -0.855 2.47 0 -0.855 2.539 0 -2.175 2.539 0 -2.175 0.45 0 -1.261 0.45 0 -1.261 0 0 -0.875 0 0 -0.875 -0.098 0 0.981789965345789 -1.35359416905228 0.981789965345789 -1.25559416905228 1.94378996534579 -1.25559416905228 1.94378996534579 -0.885594169052282 1.98178996534579 -0.885594169052282 1.98178996534579 1.21440583094772 -0.698210034654211 1.21440583094772 -0.698210034654211 1.28340583094772 -2.01821003465421 1.28340583094772 -2.01821003465421 -0.805594169052283 -1.10421003465421 -0.805594169052283 -1.10421003465421 -1.25559416905228 -0.718210034654211 -1.25559416905228 -0.718210034654211 -1.35359416905228 11 12 13 9 10 11 2 13 14 2 14 1 2 11 13 7 9 11 7 11 2 8 9 7 4 2 3 6 4 5 6 7 2 6 2 4 
4 2 1 0.01
0.825 -0.098 0 0.825 -0.098 2 0.825 0 2 0.825 0 0 0.049 -1 0.049 1 -0.049 1 -0.049 -1 2 3 4 2 4 1 
5 3 1 0.01
0.825 0 2 0.935 0 2.095 1.787 0 2.095 1.787 0 0 0.825 0 0 0.963216367781103 -0.486060544228244 1.0582163677811 -0.376060544228244 1.0582163677811 0.475939455771756 -1.0367836322189 0.475939455771756 -1.0367836322189 -0.486060544228244 1 4 5 3 1 2 3 4 1 
4 2 1 0.01
1.787 0 0 1.787 0 2.095 1.787 0.37 2.095 1.787 0.37 0 0.185 -1.0475 0.185 1.0475 -0.185 1.0475 -0.185 -1.0475 2 3 4 2 4 1 
4 2 1 0.01
1.787 0.37 0 1.787 0.37 2.095 1.825 0.37 2.095 1.825 0.37 0 -1.0475 -0.0189999999999999 1.0475 -0.0189999999999999 1.0475 0.0190000000000001 -1.0475 0.0190000000000001 3 1 2 3 4 1 
4 2 1 0.01
1.825 0.37 0 1.825 0.37 2.095 1.825 2.47 2.095 1.825 2.47 0 1.0475 1.05 -1.0475 1.05 -1.0475 -1.05 1.0475 -1.05 1 2 3 1 3 4 
7 5 1 0.01
1.825 2.47 0 1.825 2.47 2.095 0.935 2.47 2.095 0.935 2.47 2.476 -0.855 2.47 2.476 -0.855 2.47 2.146 -0.855 2.47 0 1.2051169511249 1.3728830488751 -0.889883048875097 1.3728830488751 -0.889883048875097 0.482883048875097 -1.2708830488751 0.482883048875097 -1.2708830488751 -1.3071169511249 -0.940883048875097 -1.3071169511249 1.2051169511249 -1.3071169511249 4 5 6 3 4 6 7 3 6 1 2 3 1 3 7 
4 2 1 0.01
-0.855 2.47 0 -0.855 2.47 2.146 -0.855 2.539 2.146 -0.855 2.539 0 1.073 0.0345 -1.073 0.0345 -1.073 -0.0345 1.073 -0.0345 1 2 3 1 3 4 
4 2 1 0.01
-0.855 2.539 0 -0.855 2.539 2.146 -2.175 2.539 2.146 -2.175 2.539 0 -0.66 1.073 -0.66 -1.073 0.66 -1.073 0.66 1.073 4 1 2 4 2 3 
4 2 1 0.01
-2.175 2.539 0 -2.175 2.539 2.146 -2.175 0.45 2.146 -2.175 0.45 0 1.0445 -1.073 1.0445 1.073 -1.0445 1.073 -1.0445 -1.073 2 3 4 2 4 1 
4 2 1 0.01
-2.175 0.45 0 -2.175 0.45 2.146 -1.261 0.45 2.146 -1.261 0.45 0 -1.073 -0.457 1.073 -0.457 1.073 0.457 -1.073 0.457 3 1 2 3 4 1 
4 2 1 0.01
-1.261 0.45 0 -1.261 0.45 2.146 -1.261 0 2.146 -1.261 0 0 0.225 -1.073 0.225 1.073 -0.225 1.073 -0.225 -1.073 2 3 4 2 4 1 
5 3 1 0.01
-1.261 0 0 -1.261 0 2.146 -0.855 0 2.146 -0.875 0 2 -0.875 0 0 -1.07748807566569 -0.194139896828322 1.06851192433431 -0.194139896828322 1.06851192433431 0.211860103171678 0.922511924334308 0.191860103171678 -1.07748807566569 0.191860103171678 4 1 2 4 5 1 3 4 2 
4 2 1 0.01
-0.875 0 0 -0.875 0 2 -0.875 -0.098 2 -0.875 -0.098 0 0.049 -1 0.049 1 -0.049 1 -0.049 -1 2 3 4 2 4 1 
4 2 1 0.01
-0.875 -0.098 0 -0.875 -0.098 2 0.825 -0.098 2 0.825 -0.098 0 -1 -0.85 1 -0.85 1 0.85 -1 0.85 3 1 2 3 4 1 
4 2 1 0.01
-0.875 0 2 -0.875 -0.098 2 0.825 -0.098 2 0.825 0 2 -0.85 0.049 -0.85 -0.049 0.85 -0.049 0.85 0.049 4 1 2 4 2 3 
6 4 1 0.01
-0.875 0 2 -0.855 0 2.146 -0.855 0 2.476 0.935 0 2.476 0.935 0 2.095 0.825 0 2 -0.240582368863926 -0.898058611307866 -0.094582368863926 -0.878058611307866 0.235417631136074 -0.878058611307866 0.235417631136074 0.911941388692134 -0.145582368863926 0.911941388692134 -0.240582368863926 0.801941388692134 6 1 2 6 2 3 4 5 6 4 6 3 
6 4 1 0.01
0.935 0 2.095 0.935 2.47 2.095 1.825 2.47 2.095 1.825 0.37 2.095 1.787 0.37 2.095 1.787 0 2.095 0.442907738095238 -1.23709226190476 0.442907738095238 1.23290773809524 -0.447092261904762 1.23290773809524 -0.447092261904762 -0.867092261904762 -0.409092261904762 -0.867092261904762 -0.409092261904762 -1.23709226190476 1 5 6 3 4 5 2 3 5 2 5 1 
4 2 1 0.01
0.935 0 2.476 0.935 0 2.095 0.935 2.47 2.095 0.935 2.47 2.476 0.1905 1.235 -0.1905 1.235 -0.1905 -1.235 0.1905 -1.235 1 2 3 1 3 4 
4 2 1 0.01
-0.855 0 2.476 -0.855 2.47 2.476 0.935 2.47 2.476 0.935 0 2.476 0.895 -1.235 0.895 1.235 -0.895 1.235 -0.895 -1.235 2 3 4 2 4 1 
4 2 1 0.01
-0.855 0 2.146 -0.855 2.47 2.146 -0.855 2.47 2.476 -0.855 0 2.476 -0.165 1.235 -0.165 -1.235 0.165 -1.235 0.165 1.235 4 1 2 4 2 3 
7 5 1 0.01
-2.175 2.539 2.146 -2.175 0.45 2.146 -1.261 0.45 2.146 -1.261 0 2.146 -0.855 0 2.146 -0.855 2.47 2.146 -0.855 2.539 2.146 -0.713291008033169 1.21620899196683 -0.713291008033169 -0.87279100803317 0.200708991966831 -0.87279100803317 0.200708991966831 -1.32279100803317 0.606708991966831 -1.32279100803317 0.606708991966831 1.14720899196683 0.606708991966831 1.21620899196683 3 4 5 1 2 3 6 1 3 6 3 5 7 1 6 

TShapes 137
Ve
1e-07
0.825 -0.098 0
0 0

0101101
*
Ve
1e-07
0.825 0 0
0 0

0101101
*
Ed
 1e-07 1 1 0
1  1 0 0 0.098
6  1 1 0
6  2 2 0
0

0101000
+137 0 -136 0 *
Ve
1e-07
1.787 0 0
0 0

0101101
*
Ed
 1e-07 1 1 0
1  2 0 0 0.962
6  3 1 0
6  4 3 0
0

0101000
+136 0 -134 0 *
Ve
1e-07
1.787 0.37 0
0 0

0101101
*
Ed
 1e-07 1 1 0
1  3 0 0 0.37
6  5 1 0
6  6 4 0
0

0101000
+134 0 -132 0 *
Ve
1e-07
1.825 0.37 0
0 0

0101101
*
Ed
 1e-07 1 1 0
1  4 0 0 0.038
6  7 1 0
6  8 5 0
0

0101000
+132 0 -130 0 *
Ve
1e-07
1.825 2.47 0
0 0

0101101
*
Ed
 1e-07 1 1 0
1  5 0 0 2.1
6  9 1 0
6  10 6 0
0

0101000
+130 0 -128 0 *
Ve
1e-07
-0.855 2.47 0
0 0

0101101
*
Ed
 1e-07 1 1 0
1  6 0 0 2.68
6  11 1 0
6  12 7 0
0

0101000
+128 0 -126 0 *
Ve
1e-07
-0.855 2.539 0
0 0

0101101
*
Ed
 1e-07 1 1 0
1  7 0 0 0.069
6  13 1 0
6  14 8 0
0

0101000
+126 0 -124 0 *
Ve
1e-07
-2.175 2.539 0
0 0

0101101
*
Ed
 1e-07 1 1 0
1  8 0 0 1.32
6  15 1 0
6  16 9 0
0

0101000
+124 0 -122 0 *
Ve
1e-07
-2.175 0.45 0
0 0

0101101
*
Ed
 1e-07 1 1 0
1  9 0 0 2.089
6  17 1 0
6  18 10 0
0

0101000
+122 0 -120 0 *
Ve
1e-07
-1.261 0.45 0
0 0

0101101
*
Ed
 1e-07 1 1 0
1  10 0 0 0.914
6  19 1 0
6  20 11 0
0

0101000
+120 0 -118 0 *
Ve
1e-07
-1.261 0 0
0 0

0101101
*
Ed
 1e-07 1 1 0
1  11 0 0 0.45
6  21 1 0
6  22 12 0
0

0101000
+118 0 -116 0 *
Ve
1e-07
-0.875 0 0
0 0

0101101
*
Ed
 1e-07 1 1 0
1  12 0 0 0.386
6  23 1 0
6  24 13 0
0

0101000
+116 0 -114 0 *
Ve
1e-07
-0.875 -0.098 0
0 0

0101101
*
Ed
 1e-07 1 1 0
1  13 0 0 0.098
6  25 1 0
6  26 14 0
0

0101000
+114 0 -112 0 *
Ed
 1e-07 1 1 0
1  14 0 0 1.7
6  27 1 0
6  28 15 0
0

0101000
+112 0 -137 0 *
Wi

0101100
+135 0 +133 0 +131 0 +129 0 +127 0 +125 0 +123 0 +121 0 +119 0 +117 0 
+115 0 +113 0 +111 0 +110 0 *
Fa
0  1e-07 1 0
2  1
0101000
+109 0 *
Ve
1e-07
-0.875 -0.098 2
0 0

0101101
*
Ed
 1e-07 1 1 0
1  15 0 0 2
6  29 15 0
6  30 14 0
0

0101000
+112 0 -107 0 *
Ve
1e-07
0.825 -0.098 2
0 0

0101101
*
Ed
 1e-07 1 1 0
1  16 0 0 1.7
6  31 15 0
6  32 16 0
0

0101000
+107 0 -105 0 *
Ed
 1e-07 1 1 0
1  17 0 0 2
6  33 15 0
6  34 2 0
0

0101000
+137 0 -105 0 *
Wi

0101100
+106 0 +104 0 -103 0 -110 0 *
Fa
0  1e-07 2 0
2  15
0101000
+102 0 *
Ve
1e-07
0.825 0 2
0 0

0101101
*
Ed
 1e-07 1 1 0
1  18 0 0 0.098
6  35 2 0
6  36 16 0
0

0101000
+105 0 -100 0 *
Ed
 1e-07 1 1 0
1  19 0 0 2
6  37 2 0
6  38 3 0
0

0101000
+136 0 -100 0 *
Wi

0101100
+103 0 +99 0 -98 0 -135 0 *
Fa
0  1e-07 3 0
2  2
0101000
+97 0 *
Ve
1e-07
0.935 0 2.095
0 0

0101101
*
Ed
 1e-07 1 1 0
1  20 0 0 0.145344418537487
6  39 3 0
6  40 17 0
0

0101000
+100 0 -95 0 *
Ve
1e-07
1.787 0 2.095
0 0

0101101
*
Ed
 1e-07 1 1 0
1  21 0 0 0.852
6  41 3 0
6  42 18 0
0

0101000
+95 0 -93 0 *
Ed
 1e-07 1 1 0
1  22 0 0 2.095
6  43 3 0
6  44 4 0
0

0101000
+134 0 -93 0 *
Wi

0101100
+94 0 +92 0 -91 0 -133 0 +98 0 *
Fa
0  1e-07 4 0
2  3
0101000
+90 0 *
Ve
1e-07
1.787 0.37 2.095
0 0

0101101
*
Ed
 1e-07 1 1 0
1  23 0 0 0.37
6  45 4 0
6  46 18 0
0

0101000
+93 0 -88 0 *
Ed
 1e-07 1 1 0
1  24 0 0 2.095
6  47 4 0
6  48 5 0
0

0101000
+132 0 -88 0 *
Wi

0101100
+91 0 +87 0 -86 0 -131 0 *
Fa
0  1e-07 5 0
2  4
0101000
+85 0 *
Ve
1e-07
1.825 0.37 2.095
0 0

0101101
*
Ed
 1e-07 1 1 0
1  25 0 0 0.038
6  49 5 0
6  50 18 0
0

0101000
+88 0 -83 0 *
Ed
 1e-07 1 1 0
1  26 0 0 2.095
6  51 5 0
6  52 6 0
0

0101000
+130 0 -83 0 *
Wi

0101100
+86 0 +82 0 -81 0 -129 0 *
Fa
0  1e-07 6 0
2  5
0101000
+80 0 *
Ve
1e-07
1.825 2.47 2.095
0 0

0101101
*
Ed
 1e-07 1 1 0
1  27 0 0 2.1
6  53 6 0
6  54 18 0
0

0101000
+83 0 -78 0 *
Ed
 1e-07 1 1 0
1  28 0 0 2.095
6  55 6 0
6  56 7 0
0

0101000
+128 0 -78 0 *
Wi

0101100
+81 0 +77 0 -76 0 -127 0 *
Fa
0  1e-07 7 0
2  6
0101000
+75 0 *
Ve
1e-07
0.935 2.47 2.095
0 0

0101101
*
Ed
 1e-07 1 1 0
1  29 0 0 0.89
6  57 7 0
6  58 18 0
0

0101000
+78 0 -73 0 *
Ve
1e-07
0.935 2.47 2.476
0 0

0101101
*
Ed
 1e-07 1 1 0
1  30 0 0 0.381
6  59 7 0
6  60 19 0
0

0101000
+73 0 -71 0 *
Ve
1e-07
-0.855 2.47 2.476
0 0

0101101
*
Ed
 1e-07 1 1 0
1  31 0 0 1.79
6  61 7 0
6  62 20 0
0

0101000
+71 0 -69 0 *
Ve
1e-07
-0.855 2.47 2.146
0 0

0101101
*
Ed
 1e-07 1 1 0
1  32 0 0 0.33
6  63 7 0
6  64 21 0
0

0101000
+69 0 -67 0 *
Ed
 1e-07 1 1 0
1  33 0 0 2.146
6  65 7 0
6  66 8 0
0

0101000
+126 0 -67 0 *
Wi

0101100
+76 0 +72 0 +70 0 +68 0 +66 0 -65 0 -125 0 *
Fa
0  1e-07 8 0
2  7
0101000
+64 0 *
Ve
1e-07
-0.855 2.539 2.146
0 0

0101101
*
Ed
 1e-07 1 1 0
1  34 0 0 0.069
6  67 8 0
6  68 22 0
0

0101000
+67 0 -62 0 *
Ed
 1e-07 1 1 0
1  35 0 0 2.146
6  69 8 0
6  70 9 0
0

0101000
+124 0 -62 0 *
Wi

0101100
+65 0 +61 0 -60 0 -123 0 *
Fa
0  1e-07 9 0
2  8
0101000
+59 0 *
Ve
1e-07
-2.175 2.539 2.146
0 0

0101101
*
Ed
 1e-07 1 1 0
1  36 0 0 1.32
6  71 9 0
6  72 22 0
0

0101000
+62 0 -57 0 *
Ed
 1e-07 1 1 0
1  37 0 0 2.146
6  73 9 0
6  74 10 0
0

0101000
+122 0 -57 0 *
Wi

0101100
+60 0 +56 0 -55 0 -121 0 *
Fa
0  1e-07 10 0
2  9
0101000
+54 0 *
Ve
1e-07
-2.175 0.45 2.146
0 0

0101101
*
Ed
 1e-07 1 1 0
1  38 0 0 2.089
6  75 10 0
6  76 22 0
0

0101000
+57 0 -52 0 *
Ed
 1e-07 1 1 0
1  39 0 0 2.146
6  77 10 0
6  78 11 0
0

0101000
+120 0 -52 0 *
Wi

0101100
+55 0 +51 0 -50 0 -119 0 *
Fa
0  1e-07 11 0
2  10
0101000
+49 0 *
Ve
1e-07
-1.261 0.45 2.146
0 0

0101101
*
Ed
 1e-07 1 1 0
1  40 0 0 0.914
6  79 11 0
6  80 22 0
0

0101000
+52 0 -47 0 *
Ed
 1e-07 1 1 0
1  41 0 0 2.146
6  81 11 0
6  82 12 0
0

0101000
+118 0 -47 0 *
Wi

0101100
+50 0 +46 0 -45 0 -117 0 *
Fa
0  1e-07 12 0
2  11
0101000
+44 0 *
Ve
1e-07
-1.261 0 2.146
0 0

0101101
*
Ed
 1e-07 1 1 0
1  42 0 0 0.45
6  83 12 0
6  84 22 0
0

0101000
+47 0 -42 0 *
Ed
 1e-07 1 1 0
1  43 0 0 2.146
6  85 12 0
6  86 13 0
0

0101000
+116 0 -42 0 *
Wi

0101100
+45 0 +41 0 -40 0 -115 0 *
Fa
0  1e-07 13 0
2  12
0101000
+39 0 *
Ve
1e-07
-0.855 0 2.146
0 0

0101101
*
Ed
 1e-07 1 1 0
1  44 0 0 0.406
6  87 13 0
6  88 22 0
0

0101000
+42 0 -37 0 *
Ve
1e-07
-0.875 0 2
0 0

0101101
*
Ed
 1e-07 1 1 0
1  45 0 0 0.147363496158309
6  89 13 0
6  90 17 0
0

0101000
+35 0 -37 0 *
Ed
 1e-07 1 1 0
1  46 0 0 2
6  91 13 0
6  92 14 0
0

0101000
+114 0 -35 0 *
Wi

0101100
+40 0 +36 0 -34 0 -33 0 -113 0 *
Fa
0  1e-07 14 0
2  13
0101000
+32 0 *
Ed
 1e-07 1 1 0
1  47 0 0 0.098
6  93 14 0
6  94 16 0
0

0101000
+35 0 -107 0 *
Wi

0101100
+33 0 +30 0 -106 0 -111 0 *
Fa
0  1e-07 15 0
2  14
0101000
+29 0 *
Ve
1e-07
-0.855 0 2.476
0 0

0101101
*
Ed
 1e-07 1 1 0
1  48 0 0 0.33
6  95 17 0
6  96 21 0
0

0101000
+37 0 -27 0 *
Ve
1e-07
0.935 0 2.476
0 0

0101101
*
Ed
 1e-07 1 1 0
1  49 0 0 1.79
6  97 17 0
6  98 20 0
0

0101000
+27 0 -25 0 *
Ed
 1e-07 1 1 0
1  50 0 0 0.381
6  99 17 0
6  100 19 0
0

0101000
+25 0 -95 0 *
Ed
 1e-07 1 1 0
1  51 0 0 1.7
6  101 17 0
6  102 16 0
0

0101000
+35 0 -100 0 *
Wi

0101100
+34 0 +26 0 +24 0 +23 0 -94 0 -22 0 *
Fa
0  1e-07 16 0
2  17
0101000
+21 0 *
Wi

0101100
+30 0 +104 0 +99 0 -22 0 *
Fa
0  1e-07 17 0
2  16
0101000
+19 0 *
Ed
 1e-07 1 1 0
1  52 0 0 2.47
6  103 22 0
6  104 21 0
0

0101000
+37 0 -67 0 *
Wi

0101100
+51 0 +46 0 +41 0 +36 0 +17 0 +61 0 +56 0 *
Fa
0  1e-07 18 0
2  22
0101000
+16 0 *
Ed
 1e-07 1 1 0
1  53 0 0 2.47
6  105 21 0
6  106 20 0
0

0101000
+27 0 -69 0 *
Wi

0101100
+17 0 -66 0 -14 0 -26 0 *
Fa
0  1e-07 19 0
2  21
0101000
+13 0 *
Ed
 1e-07 1 1 0
1  54 0 0 2.47
6  107 20 0
6  108 19 0
0

0101000
+25 0 -71 0 *
Wi

0101100
+14 0 -68 0 -11 0 -24 0 *
Fa
0  1e-07 20 0
2  20
0101000
+10 0 *
Ed
 1e-07 1 1 0
1  55 0 0 2.47
6  109 19 0
6  110 18 0
0

0101000
+95 0 -73 0 *
Wi

0101100
+23 0 +8 0 +70 0 -11 0 *
Fa
0  1e-07 21 0
2  19
0101000
+7 0 *
Wi

0101100
+8 0 -72 0 -77 0 -82 0 -87 0 -92 0 *
Fa
0  1e-07 22 0
2  18
0101000
+5 0 *
Sh

0101100
+108 0 +101 0 +96 0 +89 0 +84 0 +79 0 +74 0 +63 0 +58 0 +53 0 
+48 0 +43 0 +38 0 +31 0 +28 0 +20 0 -18 0 -15 0 +12 0 +9 0 
-6 0 +4 0 *
So

0100000
-3 0 *
Co

1100000
+2 0 *

+1 0 